<?xml version="1.0" encoding="UTF-8"?>
<svg version="1.1" viewBox="0 0 1600 1600" width="1280" height="1280" xmlns="http://www.w3.org/2000/svg">
<path transform="translate(1287 546)" d="m0 0c1.14 0 2.27 0 3.44 0.01 7.5 0.03 14.9 0.33 22.4 0.9 3.18 0.2 6.29 0.21 9.48 0.15 16.3-0.08 32.7 2.31 48.9 4.23 1.88 0.22 3.76 0.44 5.63 0.66 2.67 0.31 5.33 0.63 7.99 0.96 1.21 0.14 1.21 0.14 2.45 0.28 3.67 0.46 5.87 0.85 9 2.93 2.04 0.49 2.04 0.49 4.28 0.72 0.84 0.1 1.67 0.21 2.54 0.32 0.88 0.11 1.77 0.23 2.68 0.34 6.7 0.92 12.8 2.06 19.1 4.66 2.61 1.04 5.2 1.73 7.93 2.4 5.84 1.55 11.1 3.8 16.5 6.56 0.88 0.45 1.75 0.89 2.66 1.34 1.22 0.7 1.22 0.7 2.47 1.42 0.72 0.4 1.44 0.81 2.19 1.23 5.13 6.16 2.8 19.8 2.78 27.6 0 1.61-0.01 3.21-0.01 4.81 0 4.19-0.01 8.37-0.02 12.6-0.01 4.28-0.02 8.57-0.02 12.8-0.01 8.39-0.03 16.8-0.05 25.2-2.71 1.36-5.07 1.24-8.04 0.82-2.62-1.09-3.11-2.19-4.27-4.75-0.61-1.68-1.17-3.37-1.69-5.07-0.3-0.89-0.6-1.79-0.9-2.71-2.1-6.58-2.1-6.58-2.1-10.3h-2c-0.22-0.61-0.44-1.23-0.66-1.87-2.12-5.65-4.63-10.4-8.17-15.3-1.17-1.82-1.17-1.82-1.17-3.82h-2c-1.33-1.68-2.59-3.42-3.81-5.18-4.44-6.25-9.32-11-15.2-15.8-0.44-0.46-0.87-0.92-1.32-1.4-2.27-2.15-4.76-3.76-7.37-5.47-1.06-0.7-2.13-1.41-3.23-2.13-3.12-2.02-6.25-4.03-9.42-5.98-1.4-0.86-2.78-1.74-4.16-2.64-2.75-1.52-5.52-2.57-8.47-3.63-1.81-0.66-3.58-1.42-5.34-2.18-12.3-5.3-24.7-9-38.3-8.54-2.34-0.02-4.12-0.36-6.35-1.03-3.23-0.95-6.05-1.07-9.41-0.99-8.35 0.07-16.6-0.69-24.9-1.38-1.2-0.1-2.39-0.19-3.63-0.29-1.07-0.08-2.15-0.17-3.26-0.26-2.57-0.07-4.39 0.23-6.83 0.92-2.75-0.43-5.31-1.23-8-2v2c-0.74 0.05-1.48 0.1-2.24 0.15-9.46 0.7-18.5 1.83-27.5 5.07-2.27 0.78-2.27 0.78-5.52 1.62-5.03 1.56-9.43 3.95-14 6.42-1.02 0.53-1.02 0.53-2.06 1.07-0.6 0.32-1.21 0.64-1.83 0.97-1.81 0.7-1.81 0.7-5.81 0.7v2c-0.91 0.51-1.81 1.02-2.75 1.54-11.6 6.5-11.6 6.5-22.4 14.1-1.88 1.33-1.88 1.33-3.88 1.33-0.33 1-0.66 1.99-1 3-1.56 1.61-1.56 1.61-3.44 3.19-0.61 0.53-1.23 1.06-1.87 1.61-1.69 1.2-1.69 1.2-3.69 1.2-0.23 0.56-0.45 1.12-0.69 1.69-1.68 2.96-3.9 4.91-6.31 7.31-2.02 2.22-3.98 4.48-5.94 6.76-0.53 0.61-1.05 1.22-1.6 1.86-3.41 4.02-6.51 8.11-9.28 12.6-1.18 1.76-1.18 1.76-2.64 3.13-2.13 2.27-3.19 4.84-4.54 7.63-1.14 1.9-2.29 3.8-3.44 5.69-12.9 22-21.8 46.8-28.6 71.3-0.29 1.01-0.57 2.02-0.87 3.06-2.28 8.48-3.51 17.1-4.8 25.8-0.27 1.8-0.58 3.58-0.89 5.37-3.06 17.6-3.55 35.6-4.13 53.4-0.02 0.7-0.05 1.41-0.07 2.14-0.23 6.77-0.43 13.4 0.5 20.2 0.52 4.25 0.6 8.54 0.76 12.8 0.31 7.6 0.74 15.2 1.41 22.7 0.09 2.58 0.09 2.58-0.91 5.58h2c0.13 0.7 0.26 1.4 0.4 2.12 2.57 13.7 5.19 27.4 8.6 40.9 0.17 0.71 0.35 1.41 0.53 2.14 0.52 2.1 1.06 4.2 1.6 6.3 0.31 1.22 0.62 2.43 0.94 3.69 0.72 2.97 0.72 2.97 2.93 4.87 0.69 2.17 1.3 4.37 1.87 6.57 1.89 6.83 4.04 13.1 7.82 19.1 1.56 2.76 1.95 5.19 2.31 8.31h2c0.4 0.98 0.8 1.95 1.21 2.96 1.89 4.41 4.15 8.6 6.48 12.8 0.43 0.78 0.87 1.57 1.32 2.39 3.11 5.52 6.48 10.6 10.4 15.6 1.59 2.26 1.59 2.26 2.62 5 0.32 0.74 0.64 1.49 0.97 2.26 0.99 0.33 1.98 0.67 3 1 1.44 1.6 2.8 3.25 4.13 4.94 13.2 16.5 28.1 29.5 45.7 40.9 0.72 0.46 1.43 0.93 2.17 1.41 5.76 3.69 11.6 6.64 18 9.21 4.09 1.69 8.06 3.49 12 5.5 12.9 5.99 27.9 8.9 42 10 1.28 0.11 1.28 0.11 2.58 0.21 32.5 2.34 81.2 3.08 108-18.2 0.33-0.65 0.66-1.32 1-2 0.72-0.41 1.44-0.82 2.19-1.24 6.5-4.05 9.75-8.37 11.8-15.8l-1-3c0.46-0.75 0.92-1.5 1.4-2.28 1.91-3.24 2.06-5.47 2.23-9.22 0.3-6.15 0.3-6.15 0.88-8.89 0.48-2.56 0.6-4.85 0.59-7.46-0.01-1.42-0.01-1.42-0.01-2.87-0.01-1.03-0.02-2.05-0.03-3.11-0.01-2.23-0.01-4.47-0.02-6.71-0.01-1.18-0.02-2.36-0.02-3.58-0.09-18.5-0.02-37 0.48-55.5 0.45-16.7 0.54-33.3 0.53-50v-3.19c-0.01-10.8-0.03-21.5-0.06-32.2-0.01-4.07-0.02-8.13-0.03-12.2 0-2.86-0.02-5.72-0.03-8.58 0-1.72 0-3.45-0.01-5.17-0.01-1.18-0.01-1.18-0.01-2.39 0-5.39 0-5.39 1.11-7.62-1.26 0.02-2.52 0.04-3.82 0.05-4.67 0.06-9.34 0.09-14 0.12-2.03 0.01-4.05 0.04-6.07 0.06-2.91 0.04-5.81 0.05-8.72 0.07-0.91 0.01-1.81 0.03-2.75 0.04-1.26 0.01-1.26 0.01-2.55 0.01-1.11 0.01-1.11 0.01-2.25 0.02-0.6-0.12-1.21-0.24-1.83-0.37-2.69-4.04-2.23-6.2-2-11 1.93-1.93 4.83-1.12 7.4-1.13 0.93 0 1.85 0 2.8 0.01 1.46-0.01 1.46-0.01 2.94-0.01h9.75 6.89 14.6c6.06 0.01 12.1 0.01 18.2 0 25.3-0.02 50.6 0.12 76 0.58 1.72 0.03 1.72 0.03 3.46 0.06 3.19 0.05 6.38 0.12 9.57 0.18 1.42 0.03 1.42 0.03 2.88 0.05 6.46 0.15 6.46 0.15 7.58 1.26 0.13 1.82 0.13 1.82 0.13 4v2.19c-0.13 1.81-0.13 1.81-1.13 2.81-2.76 0.07-5.51 0.07-8.27 0.03-1.71-0.01-3.42-0.02-5.13-0.03-2.71-0.03-5.41-0.06-8.12-0.09-2.6-0.03-5.21-0.05-7.81-0.07-1.21-0.02-1.21-0.02-2.45-0.04-4.01-0.01-6.73 0.24-10.2 2.2 0 1.18 0.01 2.36 0.01 3.57 0.06 27.9 0.11 55.9 0.14 83.8 0.01 3.44 0.01 6.87 0.01 10.3 0.01 0.68 0.01 1.37 0.01 2.07 0.01 11.1 0.03 22.2 0.06 33.3 0.03 11.4 0.05 22.7 0.05 34.1 0.01 6.39 0.02 12.8 0.04 19.2 0.02 6.01 0.02 12 0.02 18 0 2.21 0.01 4.42 0.02 6.63 0.01 3.01 0.01 6.01 0 9.02 0.01 0.88 0.02 1.77 0.03 2.67-0.05 5.97-0.05 5.97-1.74 8.03-4.19 3.44-8.41 4.5-13.6 5.35-0.33 0.67-0.66 1.32-1 2-2.33 0.75-4.64 1.39-7 2-1.77 0.49-3.54 1-5.31 1.5-0.84 0.24-1.69 0.48-2.55 0.72-2.31 0.68-2.31 0.68-4.14 2.78-2.24 0.57-2.24 0.57-4.87 1-3.46 0.58-6.02 1.43-9.13 3-2.24 0.71-4.49 1.37-6.75 2-1.17 0.33-2.34 0.66-3.55 1-5.95 1.61-11.9 3.07-17.9 4.35-6.77 1.44-13.4 3.1-20 5.22-9.72 3.08-19.7 4.07-29.8 5.13-1.96 0.11-1.96 0.11-2.96 1.3-2.81 0.31-5.6 0.56-8.42 0.76-0.88 0.06-1.75 0.13-2.65 0.2-36 2.63-71 2.57-107-0.96v-1c-0.81-0.1-1.62-0.21-2.46-0.33-6.49-0.93-12.7-2.13-19-3.95-2.24-0.63-4.44-1.13-6.72-1.59-5.76-1.23-11.3-3.11-16.9-4.91-3.6-1.15-7.23-2.18-10.9-3.22-1.57-0.5-3.13-1.02-4.69-1.56-2.75-0.94-5.48-1.76-8.31-2.44v-2c-4.95-1.48-4.95-1.48-10-3v-2c-1.05-0.18-2.1-0.37-3.19-0.56-6.47-1.63-12.1-5.12-17.8-8.44-0.62-0.35-1.24-0.71-1.88-1.07-10.8-6.26-21.1-13-30.4-21.4-2.87-2.58-5.87-4.94-9.02-7.16-0.84-0.68-0.84-0.68-1.69-1.38v-2h-2v-2c-0.99-0.32-1.98-0.66-3-1-1.61-1.67-1.61-1.67-3.31-3.74-2.23-2.65-4.39-4.95-7.13-7.07-1.27-1.08-1.27-1.08-2.56-2.19v-3h-2c-3-3.46-3-3.46-3-6-0.99-0.32-1.98-0.66-3-1-1.72-2.1-1.72-2.1-3.5-4.74-0.88-1.3-0.88-1.3-1.78-2.61-1.12-1.72-2.2-3.45-3.25-5.2-0.93-1.54-1.89-3.05-2.91-4.53-12.2-17.8-21.8-39.7-25.6-60.9h-2c-0.1-0.59-0.2-1.19-0.3-1.8-0.89-5.2-1.95-10.3-3.22-15.4-1.71-6.9-2.96-13.5-3.3-20.6 0.05-2.11 0.05-2.11-1.18-3.13-0.22-1.42-0.37-2.86-0.5-4.3-0.08-0.89-0.16-1.79-0.25-2.71-0.08-0.94-0.16-1.89-0.25-2.86-0.12-1.36-0.12-1.36-0.25-2.74-0.17-1.86-0.33-3.72-0.5-5.59-0.16-1.8-0.34-3.6-0.53-5.4-0.83-7.98-0.92-15.9-0.91-24v-2.17c0.01-12.8 0.69-25.6 1.93-38.4 0.18-2.05 0.34-4.09 0.48-6.14 0.11-1.59 0.11-1.59 0.22-3.23 0.06-0.96 0.12-1.92 0.18-2.91 0.39-2.65 1.19-4.23 2.38-6.61 0.34-2.01 0.62-4.03 0.85-6.06 1.1-8.29 2.98-16.3 4.98-24.4 0.61-2.48 1.21-4.96 1.8-7.44 0.4-1.6 0.79-3.2 1.18-4.8 0.17-0.73 0.35-1.46 0.53-2.21 1.15-4.61 2.7-8.75 4.66-13.1 0.92-2.35 1.84-4.7 2.75-7.06 2.98-7.56 6.53-14.7 10.2-21.9 0.88-1.76 1.75-3.54 2.63-5.31 3.55-7.09 7.47-14 11.6-20.8 0.67-1.12 1.35-2.25 2.04-3.41 0.58-0.83 1.17-1.67 1.77-2.53h2c0.27-0.72 0.54-1.45 0.82-2.21 1.15-2.71 2.47-4.97 4.12-7.41 0.5-0.76 1.01-1.51 1.52-2.29 1.4-1.9 2.82-3.48 4.54-5.09 2.88-2.65 2.88-2.65 4.91-5.94 1.21-2.27 2.41-3.39 4.4-4.99 2.11-1.74 4.07-3.44 6-5.38 7.88-7.87 16.1-15 25.7-20.7 0.45-0.47 0.91-0.94 1.37-1.43 1.96-1.88 4.14-3.05 6.52-4.31 1.89-1.13 3.6-2.34 5.37-3.65 3.59-2.59 7.32-4.57 11.3-6.48 1.41-0.69 2.82-1.37 4.23-2.06 0.7-0.34 1.4-0.69 2.13-1.04 1.99-0.98 3.95-1.99 5.92-3.03 6.36-3.32 12.1-5.68 19.2-7 0.33-0.65 0.66-1.32 1-2 2.14-0.76 4.31-1.43 6.5-2.06 4.06-0.88 4.06-0.88 7.5-2.94 1.85-0.23 3.7-0.41 5.56-0.56 1.01-0.08 2.03-0.17 3.07-0.25 0.78-0.06 1.56-0.12 2.37-0.19v-3c1.13-0.1 2.25-0.21 3.41-0.33 7.33-0.74 14.6-1.56 21.8-3.1 6.47-1.38 12.9-2.34 19.5-3.19 0.94-0.12 1.87-0.25 2.84-0.37 11.1-1.41 22-2.18 33.2-2.13zm12.2 11.1v1h12v-1h-12zm-275 216 1 2zm350 43 4 1zm123 0v1h5v-1h-5zm-119 1v1h7v-1h-7zm10 0v1h5v-1h-5zm9 0v1h13v-1h-13z" fill="#272829"/>
<path transform="translate(72,546)" d="m0 0c20.8-0.07 41.6-0.12 62.4-0.16 9.66-0.01 19.3-0.03 29-0.07 8.42-0.03 16.8-0.05 25.3-0.05 4.46-0.01 8.92-0.02 13.4-0.04 4.2-0.02 8.39-0.02 12.6-0.02 1.54 0 3.08-0.01 4.62-0.02 2.1-0.01 4.2-0.01 6.31 0 1.76 0 1.76 0 3.56-0.01 2.87 0.37 2.87 0.37 4.77 1.89 0.36 0.49 0.73 0.98 1.1 1.48l-2 2c0.34 2.02 0.34 2.02 1 4v2h-43c0.5 0.99 0.5 0.99 1 2 0.1 2.6 0.13 5.16 0.13 7.76v2.46c0.01 2.73 0 5.46 0 8.2v5.86c0.01 5.33 0.01 10.7 0 16 0 5.6 0 11.2 0.01 16.8 0 9.43 0 18.9-0.01 28.3-0.01 10.8 0 21.7 0 32.5 0.01 9.33 0.01 18.7 0 28 0 5.56 0 11.1 0.01 16.7 0.02 40.2 0.02 40.2-0.78 59.1-0.5 11.9-0.5 23.8-0.49 35.7 0 2.44 0 4.87-0.01 7.31 0 5.08 0 10.2 0.01 15.2 0.01 6.33 0 12.7 0 19-0.02 24.6 0.08 49.3 0.63 73.9 0.63 28.1 0.62 56.2 0.57 84.4-0.01 7-0.01 14-0.02 21-0.01 14.3-0.03 28.6-0.05 42.9 1.42 0.17 2.84 0.33 4.27 0.49 1.19 0.14 1.19 0.14 2.4 0.28 3.23 0.32 6.42 0.31 9.67 0.26 1.31-0.01 2.62-0.03 3.97-0.04 2.05-0.02 4.09-0.05 6.14-0.09 2-0.03 4.01-0.04 6.01-0.06 1.18-0.02 2.37-0.03 3.59-0.05 2.95 0.21 2.95 0.21 5.95 2.21 0.25 2.56 0.25 2.56 0 5-1.91 1.91-5.36 1.39-7.97 1.53-0.75 0.04-1.5 0.08-2.27 0.12-11.1 0.57-22.2 0.72-33.3 0.91-1.17 0.02-2.34 0.04-3.54 0.07-25.8 0.45-51.6 0.72-77.4-0.27-6.03-0.24-12.1-0.43-18.1-0.52-1.65-0.02-1.65-0.02-3.33-0.05-3.36 0.22-6 1.09-9.15 2.21-3.37 0.12-3.37 0.12-6 0v-3h-2v-2h2c-0.02-0.8-0.04-1.61-0.06-2.44 0.06-2.56 0.06-2.56 1.06-3.56 3.03-0.09 6.04-0.12 9.07-0.1 0.91 0 1.81 0.01 2.75 0.01 2.91 0 5.83 0.01 8.74 0.03 1.97 0 3.94 0.01 5.91 0.01 4.85 0.01 9.69 0.03 14.5 0.05 0.03-1.94 0.05-3.87 0.06-5.81 0.01-1.08 0.03-2.16 0.04-3.27 0.04-2.99 0.04-2.99-1.1-5.92-0.09-1.96-0.13-3.92-0.13-5.89 0-1.22-0.01-2.43-0.01-3.69 0-1.34 0-2.69 0.01-4.03 0-1.41 0-2.82-0.01-4.22 0-2.98 0-5.96 0.01-8.93 0.01-3.65 0-7.3 0-11-0.02-14.9 0.1-29.7 0.56-44.6 0.62-20.4 0.72-40.7 0.7-61.1v-14.7c0.01-9.53 0.01-19.1 0.01-28.6-0.01-7.74-0.01-15.5-0.01-23.2v-3.36c0-2.25 0-4.51 0.01-6.76 0-21-0.01-42-0.01-63-0.01-18 0-36 0-54.1 0.01-21 0.01-42 0-63v-6.71-3.33c0-7.75 0-15.5 0.01-23.2 0-9.41 0-18.8-0.01-28.2v-14.4c0.01-4.39 0-8.78 0-13.2v-4.78-6.46-3.63c0-2.98 0-2.98-1.13-5.91-0.99 0.33-1.98 0.66-3 1-2.88 0.09-5.73 0.12-8.61 0.1-0.83 0-1.67-0.01-2.54-0.01-2.68 0-5.36-0.01-8.04-0.03-1.81 0-3.63-0.01-5.45-0.01-4.45-0.01-8.91-0.03-13.4-0.05-0.69-3.73-1.05-7.21-1-11zm13 1v1h6v-1h-6zm138 8v1h7v-1h-7zm-116 527v1h5v-1h-5z" fill="#222324"/>
<path transform="translate(892,550)" d="m0 0c-0.01 0.78-0.01 1.56-0.02 2.36-0.02 8.12 0.15 16.2 0.46 24.3 0.04 1.16 0.08 2.33 0.12 3.53 0.04 1.1 0.08 2.21 0.12 3.35 0.04 1 0.08 2 0.11 3.02 0.06 2.42 0.06 2.42 1.21 4.41 0.29 2.4 0.52 4.78 0.73 7.18 0.06 0.77 0.13 1.54 0.2 2.34 0.16 1.71 0.31 3.43 0.46 5.15 0.42 4.9 0.86 9.8 1.3 14.7 0.14 1.66 0.14 1.66 0.3 3.35 1.34 15.1 2.76 30.2 4.17 45.3 0.38 4.14 0.77 8.27 1.15 12.4 0.37 3.94 0.74 7.87 1.1 11.8 0.11 1.14 0.11 1.14 0.22 2.3 0.78 8.39 1.59 16.8 2.46 25.2 1.29 12.6 2.2 25.2 3.16 37.9 0.87 11.3 1.8 22.6 3.29 33.8 0.8 6.3 1.31 12.6 1.84 18.9 0.12 1.46 0.24 2.92 0.36 4.38 0.43 5.1 0.85 10.2 1.26 15.3 0.08 1.04 0.17 2.08 0.26 3.16 0.55 6.88 1.11 13.8 1.65 20.6 0.19 2.29 0.37 4.58 0.55 6.87 0.26 3.24 0.52 6.48 0.77 9.72 0.12 1.45 0.12 1.45 0.24 2.94 0.3 3.87 0.53 7.67 0.52 11.6 0.01 2.74 0.27 4.9 0.93 7.54 1.37 6.4 1.76 12.9 2.23 19.4 1.13 15.7 2.66 31.4 4.35 47.1 1.82 17 3.38 33.9 4.6 50.9 0.05 0.76 0.11 1.53 0.17 2.31 0.14 2.02 0.28 4.05 0.42 6.07 0.29 3.53 0.66 7.04 1.06 10.6 0.4 3.71 0.69 7.43 0.97 11.2 0.09 1.21 0.09 1.21 0.19 2.45 0.26 3.41 0.53 6.83 0.79 10.2 0.19 2.52 0.39 5.03 0.58 7.54 0.06 0.76 0.12 1.52 0.17 2.3 0.41 5.21 0.95 10.4 1.55 15.6 5.04 1.66 9.48 2.27 14.8 2.16 0.71-0.01 1.43-0.01 2.16-0.02 2.27-0.01 4.53-0.04 6.79-0.08 2.28-0.03 4.55-0.05 6.83-0.07 1.41-0.01 2.82-0.03 4.23-0.05 3.03-0.03 5.28 0.09 8.19 1.06v8c-5.12 0.85-10.1 1.13-15.3 1.1-0.8 0-1.59-0.01-2.41-0.01-1.72 0-3.44-0.01-5.16-0.01-2.72-0.02-5.45-0.02-8.17-0.03-6.77-0.01-13.5-0.04-20.3-0.06-5.73-0.02-11.4-0.04-17.2-0.05-2.67 0-5.34-0.01-8.02-0.03-1.65 0-3.31 0-4.96-0.01-1.1-0.01-1.1-0.01-2.22-0.01-4.46 0-8.78 0.35-13.2 0.88-2.89 0.31-5.74 0.35-8.64 0.34h-3.64c-1.26 0-2.53-0.01-3.83-0.01-1.32 0-2.64-0.01-4-0.01-3.48 0-6.95-0.01-10.4-0.02-3.56-0.01-7.12-0.02-10.7-0.02-6.96-0.01-13.9-0.03-20.9-0.05v-3l-2-1 2-7h42l-1-7c0.44-2.44 0.44-2.44 1-4l-2-1c-0.38-2.38-0.64-4.67-0.82-7.07-0.06-0.71-0.12-1.43-0.18-2.17-0.2-2.29-0.38-4.59-0.56-6.88-0.19-2.28-0.38-4.56-0.57-6.83-0.12-1.42-0.24-2.83-0.35-4.25-0.35-4.3-0.9-8.54-1.52-12.8-0.04-1.6-0.04-3.21 0-4.81 0.12-3.22 0.12-3.22-1-6.19-0.26-1.87-0.48-3.76-0.66-5.64-0.12-1.18-0.24-2.36-0.37-3.58-0.12-1.28-0.25-2.57-0.38-3.89-0.13-1.33-0.27-2.66-0.4-3.98-0.28-2.79-0.55-5.58-0.83-8.37-0.35-3.56-0.71-7.12-1.06-10.7-0.28-2.75-0.55-5.49-0.83-8.24-0.19-1.95-0.39-3.9-0.58-5.84-0.12-1.2-0.23-2.39-0.36-3.62-0.1-1.05-0.2-2.1-0.31-3.17-0.22-2.99-0.22-2.99-0.19-6.25 0.17-2.7 0.17-2.7-1.03-4.74-0.29-2.79-0.52-5.57-0.72-8.38-0.06-0.83-0.12-1.67-0.19-2.54-0.2-2.69-0.4-5.39-0.59-8.08 0-16.5 0-16.5-3.5-32-0.2-1.98-0.35-3.96-0.46-5.94-0.08-1.22-0.16-2.43-0.24-3.68-0.08-1.3-0.16-2.6-0.24-3.94-0.76-11.9-1.8-23.7-3.5-35.5-1.41-10-2.32-20-3.13-30.1-0.42-5.15-0.86-10.3-1.29-15.4-0.14-1.62-0.14-1.62-0.27-3.28-0.99-11.7-2.04-23.3-3.11-35-0.21-2.26-0.42-4.53-0.63-6.79-1.09-12.1-2.32-24.1-3.77-36.2-1.02-8.49-1.79-16.8-1.55-25.3 0.02-0.98 0.03-1.96 0.04-2.97 0.04-2.31 0.09-4.61 0.15-6.91 0.99-0.33 1.98-0.66 3-1l2-10h3c0.1-0.55 0.2-1.09 0.3-1.65 1.28-6.49 3.09-13 7.21-18.3 1.68-2.31 2.46-4.41 3.37-7.11 1.67-4.81 3.63-9.39 5.77-14 1.49-3.25 2.89-6.53 4.29-9.82 2.46-5.77 5.04-11.5 7.68-17.2 2.61-5.6 5.1-11.2 7.38-17 4.83-12.2 4.83-12.2 7.56-16.4 1.86-3.31 2.72-6.7 3.69-10.4 0.75-2.21 0.75-2.21 2.75-4.21 0.86-2.57 1.53-5.17 2.22-7.79 1-2.85 1.8-3.21 4.78-3.21zm-59 128 1 2zm-5 11 1 2zm0 20 1 2zm1 9 1 2zm1 9 1 2zm5 52 1 4zm5 57 1 2zm1 9 1 2zm5 47v7h1v-7h-1zm5 55 1 3z" fill="#272829"/>
<path transform="translate(386,618)" d="m0 0c4.59 3.66 6.07 8.44 8.12 13.8 0.79 1.98 1.58 3.96 2.38 5.95 0.4 1.03 0.81 2.06 1.23 3.12 2.11 5.29 4.28 10.6 6.46 15.8 0.42 1.03 0.84 2.05 1.28 3.1 2.49 5.95 5.17 11.7 8.15 17.4 1.78 3.69 3.25 7.47 4.69 11.3 0.26 0.67 0.51 1.35 0.77 2.04 1.03 2.8 1.92 5.49 2.46 8.43 0.15 0.69 0.3 1.38 0.46 2.09l2 1c1.07 2.43 1.07 2.43 2.12 5.44 0.36 0.99 0.71 1.97 1.08 2.99 0.8 2.57 0.8 2.57 0.8 4.57h2c0.14 0.56 0.27 1.12 0.41 1.7 1.65 6.12 4.12 11.6 7.03 17.2 2.02 3.92 3.58 7.75 4.83 12 0.7 2.07 1.55 3.86 2.58 5.79 2.36 4.62 4.1 9.41 5.84 14.3 0.6 1.69 1.21 3.39 1.82 5.09 0.4 1.11 0.4 1.11 0.8 2.24 0.56 1.73 0.56 1.73 1.69 2.73 0.1 1.94 0.13 3.87 0.12 5.81 0.01 1.06 0.01 2.12 0.01 3.21-0.11 2.52-0.4 4.58-1.13 6.98h-2c0.17 0.56 0.34 1.11 0.51 1.69 0.54 2.56 0.51 4.71 0.36 7.33-0.05 1-0.11 2-0.16 3.03-0.07 1.08-0.13 2.15-0.2 3.27-0.06 1.12-0.12 2.25-0.19 3.41-0.14 2.39-0.27 4.78-0.42 7.17-0.21 3.6-0.41 7.19-0.61 10.8-0.62 11-1.36 21.9-2.59 32.9-0.94 8.35-1.42 16.7-1.91 25.1-0.42 6.74-0.99 13.4-1.77 20.1-0.96 8.29-1.6 16.6-2.17 24.9-1.01 14.9-2.38 29.6-4.02 44.5-2.37 21.4-3.85 42.7-4.84 64.1-0.05 1.1-0.11 2.21-0.16 3.34-0.1 2.05-0.19 4.09-0.27 6.14-0.28 5.74-0.99 11.2-2.13 16.9-0.55 3.04-0.63 5.97-0.55 9.06 0.01 1.01 0.03 2.03 0.05 3.07 0.02 0.74 0.05 1.48 0.07 2.24l2-1c1.79 0.25 3.57 0.49 5.36 0.75 6.45 0.62 13 0.26 19.5 0.15 1.94-0.03 3.88-0.04 5.82-0.06 1.73-0.03 1.73-0.03 3.48-0.05 2.88 0.21 2.88 0.21 5.88 2.21 0.41 2.71 0.13 5.24 0 8-14.6 0.02-29.1 0.04-43.6 0.05-6.76 0.01-13.5 0.01-20.3 0.03-6.52 0.01-13 0.01-19.6 0.01-2.49 0.01-4.98 0.01-7.47 0.02h-10.4c-1.03 0.01-2.07 0.01-3.14 0.01h-2.87-2.49c-2.12-0.12-2.12-0.12-5.12-1.12-2 0.33-4 0.66-6 1-1.77-0.08-3.55-0.24-5.31-0.44-8.12-0.75-16.2-0.61-24.4-0.52-1.06 0.01-2.12 0.01-3.21 0.02-0.96 0.01-1.92 0.03-2.91 0.04-2.2-0.1-2.2-0.1-3.2-1.1-0.19-2.44-0.19-2.44 0-5 2-2 2-2 5.9-2.23 1.68 0 3.36 0.01 5.05 0.03 1.32 0.01 1.32 0.01 2.68 0.01 2.83 0.01 5.66 0.04 8.49 0.07 1.92 0.01 3.84 0.01 5.76 0.02 4.71 0.02 9.41 0.06 14.1 0.1 0.6-5.17 1.14-10.3 1.46-15.5 0.08-1.2 0.16-2.41 0.24-3.65 0.08-1.28 0.16-2.56 0.24-3.87 0.08-1.36 0.17-2.71 0.26-4.06 0.41-6.51 0.81-13 1.21-19.5 0.17-2.89 0.35-5.77 0.53-8.66 0.12-2.04 0.24-4.07 0.36-6.11 0.64-10.4 0.64-10.4 1.22-15 0.85-7.02 0.85-14.1 1.04-21.2 0.05-1.5 0.09-3 0.13-4.5 0.11-3.65 0.21-7.29 0.31-10.9h2c-0.18-0.65-0.35-1.3-0.53-1.97-0.6-3.89-0.29-7.56 0.05-11.4 0.07-0.82 0.13-1.64 0.2-2.48 0.21-2.62 0.43-5.23 0.66-7.85 0.28-3.41 0.55-6.82 0.83-10.2 0.07-0.84 0.14-1.67 0.21-2.53 0.52-6.43 0.92-12.9 1.22-19.3 0.25-4.98 0.25-4.98 1.36-7.19 0.02-2.17-0.01-4.33-0.06-6.5-0.1-7.27 0.38-14.4 1-21.7 0.95-11.2 1.44-22.4 1.72-33.7 0.03-1.17 0.06-2.34 0.09-3.55 0.03-1.05 0.05-2.09 0.08-3.17 0.17-2.36 0.17-2.36 1.17-3.36 0.21-1.69 0.35-3.39 0.46-5.08 0.08-1.09 0.16-2.17 0.24-3.29 0.08-1.18 0.16-2.37 0.24-3.58s0.17-2.42 0.26-3.66c0.27-3.88 0.53-7.76 0.8-11.6 0.27-3.87 0.53-7.73 0.8-11.6 0.17-2.41 0.34-4.82 0.5-7.23 0.08-1.1 0.16-2.2 0.24-3.33 0.06-0.96 0.13-1.93 0.19-2.92 0.26-2.61 0.73-5.11 1.27-7.68 0.16-1.87 0.29-3.75 0.39-5.63 0.07-1.17 0.14-2.34 0.21-3.55 0.07-1.3 0.14-2.6 0.21-3.94 0.65-11.5 1.39-22.9 2.17-34.4 0.09-1.28 0.18-2.56 0.27-3.88 0.36-5.18 0.72-10.4 1.08-15.6 0.94-13.4 1.85-26.9 2.32-40.4 0.24-6.35 0.77-12.6 1.41-19 0.98-9.94 1.15-19.8 0.94-29.8zm-1 41 1 3zm-6 93 1 2zm-2 27 1 2zm-5 57v13h1v-13h-1zm-9 134v16h1v-16h-1zm-2 40 1 2z" fill="#272829"/>
<path transform="translate(1375 807)" d="m0 0c1.39 0 1.39 0 2.8 0.01 1.46-0.01 1.46-0.01 2.94-0.01h9.75 6.89c4.86-0 9.72 0 14.6 0.01 6.06 0 12.1 0 18.2-0.01 25.3-0.02 50.6 0.12 76 0.58 1.14 0.02 2.29 0.04 3.46 0.06 3.19 0.06 6.38 0.12 9.57 0.18 0.95 0.02 1.9 0.04 2.88 0.05 6.46 0.15 6.46 0.15 7.58 1.27 0.13 1.81 0.13 1.81 0.12 4 0.01 0.72 0.01 1.44 0.01 2.18-0.13 1.82-0.13 1.82-1.13 2.82-2.77 0.06-5.51 0.06-8.27 0.02-1.71-0.01-3.42-0.02-5.13-0.03-2.71-0.03-5.41-0.06-8.12-0.09-2.6-0.03-5.21-0.05-7.81-0.06-1.21-0.02-1.21-0.02-2.45-0.05-4.01-0.01-6.74 0.25-10.2 2.21 0 1.17 0 2.35 0.01 3.56 0.06 27.9 0.11 55.9 0.14 83.8 0.01 3.44 0.01 6.87 0.01 10.3 0 0.68 0.01 1.37 0.01 2.07 0.01 11.1 0.03 22.2 0.06 33.3 0.03 11.4 0.05 22.7 0.05 34.1 0.01 6.39 0.01 12.8 0.04 19.2 0.02 6.01 0.02 12 0.02 18 0 2.21 0.01 4.42 0.02 6.63 0.01 3.01 0.01 6.01 0 9.02 0.01 0.88 0.02 1.77 0.03 2.67-0.05 5.97-0.05 5.97-1.74 8.03-4.2 3.44-8.41 4.5-13.6 5.36l-1 2c-2.33 0.74-4.64 1.38-7 2-1.77 0.49-3.55 0.99-5.31 1.5-0.84 0.23-1.69 0.47-2.55 0.71-2.32 0.68-2.32 0.68-4.14 2.79-2.24 0.56-2.24 0.56-4.88 1-3.45 0.57-6.01 1.42-9.12 3-2.24 0.7-4.49 1.36-6.75 2-1.17 0.33-2.34 0.66-3.55 1-5.95 1.6-11.9 3.06-17.9 4.34-6.77 1.44-13.4 3.1-20 5.22-9.72 3.08-19.7 4.07-29.9 5.13-1.95 0.11-1.95 0.11-2.95 1.31-2.81 0.3-5.6 0.55-8.42 0.75-0.88 0.06-1.75 0.13-2.65 0.2-36 2.64-71 2.57-107-0.95v-1c-1.22-0.17-1.22-0.17-2.46-0.34-6.49-0.93-12.7-2.13-19-3.95-2.24-0.63-4.44-1.13-6.72-1.59-5.76-1.23-11.3-3.11-16.9-4.91-3.6-1.15-7.24-2.18-10.9-3.21-1.57-0.51-3.13-1.03-4.69-1.57-2.75-0.94-5.48-1.76-8.31-2.43v-2l10-1c-0.99-1.49-0.99-1.49-2-3l5-1c-0.17-0.6-0.33-1.2-0.5-1.82-0.5-2.18-0.5-2.18-0.5-5.18h21v2h4v3c4.61 1.04 4.61 1.04 9 0 2.14 0.89 2.14 0.89 4.69 2.25 45.1 23.4 102 24.2 150 9.75 12.1-3.85 12.1-3.85 21-12 0.72-0.42 1.44-0.83 2.19-1.25 6.5-4.05 9.75-8.37 11.8-15.8l-1-3c0.46-0.76 0.92-1.51 1.4-2.29 1.91-3.24 2.06-5.47 2.22-9.21 0.31-6.16 0.31-6.16 0.89-8.9 0.48-2.56 0.6-4.85 0.59-7.46-0.01-1.42-0.01-1.42-0.01-2.87-0.01-1.03-0.02-2.05-0.03-3.11-0.01-2.23-0.02-4.47-0.02-6.71-0.01-1.18-0.02-2.36-0.02-3.58-0.09-18.5-0.03-37 0.48-55.5 0.45-16.7 0.54-33.3 0.53-50v-3.19c-0.01-10.8-0.03-21.5-0.06-32.2-0.01-4.07-0.02-8.13-0.03-12.2 0-2.86-0.02-5.72-0.03-8.57 0-1.73-0.01-3.46-0.01-5.18 0-0.79-0.01-1.58-0.01-2.39 0-5.39 0-5.39 1.11-7.61-1.26 0.01-2.52 0.03-3.82 0.04-4.67 0.06-9.34 0.09-14 0.12-2.02 0.02-4.04 0.04-6.07 0.06-2.9 0.04-5.8 0.06-8.71 0.07-0.91 0.01-1.81 0.03-2.75 0.05h-2.55c-1.11 0.01-1.11 0.01-2.25 0.02-0.6-0.12-1.21-0.24-1.83-0.36-2.7-4.05-2.23-6.21-2-11 1.93-1.93 4.83-1.13 7.4-1.14zm-1.4 9.14 4 1zm123 0v1h5v-1h-5zm-119 1v1h7v-1h-7zm10 0v1h5v-1h-5zm9 0v1h13v-1h-13z" fill="#222324"/>
<path transform="translate(408,512)" d="m0 0c3.32 2.9 4.3 4.69 5 9l2 1c1.38 2.57 2.68 5.13 3.94 7.75 2.2 4.54 4.41 8.95 7.06 13.2 0.9 1.66 1.8 3.33 2.69 5 2.3 4.26 4.75 8.39 7.31 12.5 3.02 4.85 5.86 9.75 8.55 14.8 1.03 1.92 2.08 3.83 3.15 5.73 0.55 0.99 1.11 1.97 1.68 2.98 0.5 0.89 1 1.77 1.52 2.69 1.1 2.31 1.1 2.31 1.1 5.31h2c0.34 0.63 0.68 1.26 1.03 1.91 3.26 6.01 6.6 12 10 17.9 2.04 3.56 4.02 7.15 5.96 10.8 2.17 4.02 4.51 7.89 6.94 11.8 2.78 4.47 5.26 8.96 7.56 13.7 2.86 5.86 6.08 11.4 9.55 16.9 6.08 9.69 11.6 19.7 17.2 29.7 2.72 4.82 5.45 9.64 8.26 14.4 7.29 12.4 14.3 25 21.3 37.6 8.16 14.5 8.16 14.5 16.7 28.9 1.32 2.23 2.58 4.48 3.82 6.75 2.75 4.96 5.69 9.79 8.64 14.6 3.92 6.49 7.62 13 10.9 19.8 1.57 3.24 3.34 6.3 5.16 9.4 0.92 1.6 1.84 3.21 2.75 4.81 0.43 0.75 0.86 1.5 1.3 2.27 0.95 1.92 0.95 1.92 0.95 3.92h2c0.38 0.78 0.38 0.78 0.77 1.57 1.57 3.18 3.14 6.28 4.98 9.31 1.25 2.12 1.25 2.12 1.25 4.12l2 1c1.07 1.78 1.07 1.78 2.12 3.94 0.53 1.06 0.53 1.06 1.08 2.15 0.8 1.91 0.8 1.91 0.8 3.91h2c0.45 0.93 0.45 0.93 0.92 1.87 3.37 6.82 6.83 13.6 10.9 20 1.19 2.12 1.19 2.12 1.19 5.12h2c4.32 5.89 12 16.6 12 24h2c0.29 0.61 0.58 1.21 0.88 1.84 3.48 7.1 7.41 13.8 11.6 20.5 3.68 5.99 6.84 12.1 9.92 18.4 1.54 3.18 1.54 3.18 3.32 5.99 1.29 2.21 1.29 2.21 1.29 4.21h2c0.52 1.07 1.03 2.14 1.56 3.25 1.8 3.61 3.77 7.09 5.82 10.6 4.91 8.39 4.91 8.39 7 12.1 0.48 0.84 0.96 1.68 1.46 2.55 2.05 4.54 2.58 7.32 0.97 12.1-0.59 1.3-1.19 2.59-1.81 3.88-0.48 1.04-0.48 1.04-0.97 2.11-0.67 1.45-1.35 2.89-2.03 4.34-0.93 1.97-1.84 3.94-2.75 5.93-3 6.57-6.17 13-9.44 19.5-2.52 4.99-4.83 9.97-6.82 15.2-1.67 4.19-3.62 8.26-5.53 12.4-1.87 4.02-3.67 8.08-5.46 12.1h-2l-2 9h-2v-2h-2c-1.32-3.62-2-6.1-2-10h-2c-0.26-1.05-0.26-1.05-0.52-2.12-1.35-5.3-2.86-10-5.44-14.8-1.6-3.12-2.82-6.38-4.1-9.65-1.25-3.16-2.59-6.26-3.94-9.38-2.44-5.63-4.73-11.3-7-17-0.96-2.4-1.92-4.79-2.88-7.19-0.51-1.28-1.02-2.56-1.53-3.85-0.39-0.97-0.39-0.97-0.79-1.96-6.8-17-6.8-17-7.83-19.6-2.72-6.77-5.52-13.5-8.59-20.1-1.83-3.97-3.32-7.93-4.65-12.1-1.37-4.15-3.07-8.17-4.73-12.2-0.26-0.63-0.52-1.26-0.78-1.91-2.95-7.18-5.91-14.4-8.91-21.5-1.8-4.32-3.55-8.66-5.28-13-2.36-5.85-4.8-11.7-7.28-17.5-2.28-5.36-4.38-10.8-6.31-16.2-1.62-4.61-3.36-9.08-5.4-13.5-2.49-5.48-4.78-11.1-6.98-16.7-1-2.48-2.11-4.89-3.25-7.31-3.63-7.94-6.68-16.1-9.81-24.2-1.21-3.13-2.41-6.27-3.62-9.4-0.3-0.75-0.59-1.51-0.89-2.28-2.06-5.33-4.23-10.6-6.45-15.9-1.77-4.25-3.34-8.56-4.93-12.9-0.96-2.72-0.96-2.72-3.11-4.62-0.52-1.5-0.97-3.03-1.38-4.56-1.17-4.13-2.65-7.88-4.45-11.8-1.53-3.51-2.85-7.09-4.17-10.7-1.85-5.02-3.78-9.95-6.01-14.8-3.57-7.87-6.67-15.9-9.75-24-1.16-2.99-2.37-5.94-3.62-8.89-2.13-5.07-4.14-10.2-6.12-15.3-2.72-7.05-5.55-14-8.5-21-0.88-2.08-1.75-4.17-2.62-6.25-0.39-0.91-0.77-1.83-1.17-2.77-2.04-5.02-3.89-10.1-5.75-15.2-0.25-0.69-0.5-1.38-0.76-2.08-0.52-1.41-1.03-2.82-1.54-4.24-1.49-4.09-1.49-4.09-4.16-7.47-1.02-3.02-1.85-6.08-2.71-9.15-1.28-4.15-3.15-8-4.97-11.9-2.56-5.67-4.71-11.5-6.93-17.3-2.23-5.81-4.64-11.5-7.27-17.1-1.45-3.2-2.73-6.46-4.02-9.73-2.26-5.62-4.7-11.2-7.1-16.7-1.51-3.52-3.01-7.04-4.5-10.6-1.43-3.4-1.43-3.4-3.06-6.38-1.72-3.66-2.56-7.12-3.44-11.1zm184 452 1 2z" fill="#272829"/>
<path transform="translate(862,658)" d="m0 0c2 2 2 2 2 5l2-1v-3c1.81 0.19 1.81 0.19 4 1 2.4 3.21 3.44 6.05 4 10 0.99-0.33 1.98-0.66 3-1l3 2c0.99-0.33 1.98-0.66 3-1-0.81 1.94-0.81 1.94-2 4-0.99 0.33-1.98 0.66-3 1-0.7 1.32-1.37 2.65-2 4-0.99 0.5-0.99 0.5-2 1 0.78 0.72 1.57 1.44 2.38 2.19 2.46 2.64 3.55 4.41 4.62 7.81h5c0.5 2.97 0.5 2.97 1 6h-3c0.5 1.98 0.5 1.98 1 4-0.78-0.02-1.57-0.04-2.38-0.06-2.6-0.13-2.6-0.13-4.62 1.06-0.5-1.98-0.5-1.98-1-4l5 1v-2h-5l-1-3 3-2v-2c-3.87-1.88-3.87-1.88-8-1l2 10h-3l-2 5-4-4 2 7h6c0.3 0.58 0.61 1.16 0.92 1.76 2.63 4.9 5.36 9.1 9.08 13.2l-1 2h-2l1 4c0.99-0.33 1.98-0.66 3-1v4c0.62 0.04 1.24 0.08 1.88 0.12 2.12 0.88 2.12 0.88 3.43 3.5 0.78 3.81 0.41 6.59-0.31 10.4v3h-2c0.5 0.62 0.99 1.24 1.5 1.88 1.5 2.12 1.5 2.12 1.5 4.12-1.49 0.5-1.49 0.5-3 1 1.49 0.5 1.49 0.5 3 1-0.16 0.6-0.33 1.2-0.5 1.81-0.61 2.3-0.61 2.3-0.5 5.19l-3 2c-2.31 1.73-2.31 1.73-4 4 0.17 2.58 0.17 2.58 1 5 0 2.84-0.4 5.24-1 8h-2l-1-3c-0.28 1.89-0.28 1.89-0.56 3.81-0.16 1.06-0.16 1.06-0.32 2.15-0.26 2.24-0.26 2.24 0.88 5.04-0.01 2.03-0.13 4.04-0.26 6.06 0.07 2.05 0.07 2.05 1.72 3.35 2.16 2.23 2.07 3.97 2.29 7.03 0.08 0.94 0.15 1.89 0.23 2.87 0.02 2.69 0.02 2.69-0.59 4.91-0.13 0.59-0.26 1.18-0.39 1.78l2 2v-3c1.98-0.33 3.96-0.66 6-1v2h-2v3h2v8l-6-4v3c-0.19 1.2-0.37 2.39-0.56 3.62-0.15 1.12-0.29 2.23-0.44 3.38l1 1v-7c0.76 0.19 1.53 0.37 2.31 0.56 2.78 0.67 2.78 0.67 5.69-0.56v-3c0.99-0.33 1.98-0.66 3-1 2.59 2.59 2.7 4.4 3 8-2.14 2.14-3.13 2.43-6 3l2 1-1 1c0.64 0.33 1.28 0.66 1.94 1 3.03 2.94 2.9 5.92 3.06 10v4l-5-1c0.04 0.95 0.08 1.9 0.12 2.88-0.12 3.12-0.12 3.12-2.12 5.12v3h-3v4h2c1.02 3.89 1.17 5.61-0.44 9.38-0.51 0.86-1.03 1.73-1.56 2.62 0.7 0.8 1.4 1.61 2.12 2.44 1.51 2.2 1.91 3.2 1.7 5.89-0.53 2.25-1.16 4.45-1.82 6.67 0 2.4 0.25 4.74 0.5 7.12 0.09 0.92 0.19 1.83 0.28 2.76 0.11 1.05 0.11 1.05 0.22 2.12-0.99 0.33-1.98 0.66-3 1l-2-1 1 4c0.99-0.33 1.98-0.66 3-1l2 3 1-2c0.99 0.33 1.98 0.66 3 1 2 5.79 2 5.79 2 9h-2l1 2c2.31-0.33 4.62-0.66 7-1l1 9 4 1c-0.52 0.74-1.03 1.49-1.56 2.25-1.65 2.56-1.65 2.56-1.25 4.94 0.77 2.01 0.77 2.01 2.81 3.81l-2 3 2 1c1.13 3.39 0.74 4.59 0 8-0.11 1.85-0.17 3.71-0.19 5.56-0.01 0.93-0.03 1.86-0.04 2.82 0.24 2.73 0.98 4.23 2.23 6.62-0.54 5.54-0.54 5.54-2 7-0.04 2-0.04 4 0 6h2c0.39 1.6 0.76 3.21 1.12 4.81 0.32 1.34 0.32 1.34 0.64 2.71 0.24 2.48 0.24 2.48-1.76 5.48l3 2c0.41 2.71 0.13 5.24 0 8l-8 1v3h4c0.14 0.93 0.29 1.86 0.44 2.81 0.48 3.2 0.48 3.2 1.56 6.19l2 1c-0.51 2.17-1 4-2 6h-4c0.58 2.39 1.22 4.67 2 7 0.99 0.33 1.98 0.66 3 1l-1 2c-2.56 0.62-2.56 0.62-5 1-0.86 2.93-1.39 5.08-0.18 7.96 1 1.72 2.09 3.38 3.18 5.04h-3v4l5 1c-3 1-3 1-5 1l-1 2h2c0.11 4.44-0.3 8.61-1 13h-2v-5h-4v-2l-2 2c0.32 3.6 0.32 3.6 1 7 0.99-0.33 1.98-0.66 3-1h3l2 2-1 3c0.68 0.04 1.35 0.07 2.05 0.11 1.33 0.1 1.33 0.1 2.7 0.2 0.88 0.06 1.76 0.12 2.67 0.18 2.95 0.58 4.38 1.5 6.58 3.51 1.25 2.19 1.25 2.19 2 4h2l2-4h2c-0.25-0.89-0.5-1.77-0.75-2.69-0.32-4.29 1.15-5.06 3.75-8.31-0.14-3.24-0.14-3.24-1-6 3-1 3-1 6 0 0.34 2.04 0.67 4.08 1 6.12 0.19 1.14 0.37 2.28 0.56 3.45 0.41 3.19 0.52 6.22 0.44 9.43 5.04 1.66 9.48 2.27 14.8 2.16 0.71-0.01 1.43-0.01 2.16-0.02 2.27-0.01 4.53-0.04 6.79-0.08 2.28-0.03 4.55-0.05 6.83-0.07 1.41-0.01 2.82-0.03 4.23-0.05 3.03-0.03 5.28 0.09 8.19 1.06v8c-5.12 0.85-10.1 1.13-15.3 1.1-0.8 0-1.59-0.01-2.41-0.01-1.72 0-3.44-0.01-5.16-0.01-2.72-0.02-5.45-0.02-8.17-0.03-6.77-0.01-13.5-0.04-20.3-0.06-5.73-0.02-11.4-0.04-17.2-0.05-2.67 0-5.34-0.01-8.02-0.03-1.65 0-3.31 0-4.96-0.01-0.73 0-1.47-0.01-2.22-0.01-4.46 0-8.78 0.35-13.2 0.88-2.89 0.31-5.74 0.35-8.64 0.34h-3.64c-1.26 0-2.53-0.01-3.83-0.01-1.32 0-2.64-0.01-4-0.01-3.48 0-6.95-0.01-10.4-0.02-3.56-0.01-7.12-0.02-10.7-0.02-6.96-0.01-13.9-0.03-20.9-0.05v-3l-2-1 2-7h42c-0.5-3.47-0.5-3.47-1-7 0.44-2.44 0.44-2.44 1-4l-2-1c-0.03-1.65-0.05-3.29-0.06-4.94-0.01-0.91-0.03-1.83-0.04-2.77 0.1-2.29 0.1-2.29 1.1-3.29 0.08-1.83 0.08-1.83-0.05-4.02-0.04-0.83-0.08-1.66-0.12-2.52-0.07-1.34-0.07-1.34-0.14-2.71-0.05-0.9-0.09-1.81-0.14-2.74-0.36-6.32-1.08-12.4-2.25-18.7-0.3-2.34-0.3-2.34 0.7-4.34-0.33-1.11-0.66-2.23-1-3.38-1.03-3.72-0.87-4.18 0-7.62-0.09-1.86-0.24-3.71-0.44-5.56-0.49-5.03-0.59-9.92-0.4-15-0.18-2.82-0.99-4.91-2.16-7.47h2v-4l5 1v-2l-2-1c-0.5-1.49-0.5-1.49-1-3l4-2v5h2c0.93-4.53 0.93-4.53 0-9l-2 3c-3.88-0.88-3.88-0.88-5-2l-1 3c-0.29-1.09-0.58-2.19-0.88-3.31-0.94-3.73-0.94-3.73-3.12-6.69 0.31-1.34 0.65-2.67 1-4-0.19-0.87-0.37-1.73-0.56-2.62-0.15-0.79-0.29-1.57-0.44-2.38l2-2c0.71-1.98 1.39-3.98 2-6l4 1v-4h2v3h2v-7h-2l-1 2c-1.26-2.96-2.37-5.84-3-9 1.31-3.06 1.31-3.06 3-5l2 2-1 2 4-1-1-2h2l2-4h5c-0.61-3.56-1.58-6.68-3-10h4l-5-2v-3c-0.59-1.55-0.59-1.55-1.19-3.12-1.06-5.06 0.23-8.23 2.19-12.9h3v-4l-8-1c0.5-3.96 0.5-3.96 1-8h-2v-4l-2-1h2l-1-10h-1l-1 7c-0.99 0.33-1.98 0.66-3 1l-1 2c0.99 0.33 1.98 0.66 3 1-0.99 1.32-1.98 2.64-3 4-0.18-0.88-0.36-1.76-0.55-2.67-0.25-1.16-0.5-2.32-0.76-3.52-0.25-1.15-0.49-2.29-0.74-3.48-0.92-3.22-2.09-5.56-3.95-8.33 2.33-1.21 4.5-2.17 7-3l1-2h2v5h2l2-5-5-4v2h-5v-3l4-2-4-1c0.66-0.89 1.32-1.77 2-2.69 1.99-3.29 2.44-4.59 2-8.31l2 1v2l2-1c-0.78-0.91-1.57-1.82-2.38-2.75-1.93-2.31-3.39-4.48-4.62-7.25l-1-1c-1.34-8.46-1.8-14.7 3-22h-5v3h-2v5l2 1v7l-5 1c-2-3-2-3-1.62-5.19 0.2-0.6 0.41-1.19 0.62-1.81h-3c-0.14 0.72-0.29 1.44-0.44 2.19-0.34 1.73-0.71 3.46-1.12 5.19-0.55 2.78-0.55 2.78-0.38 6.31-0.06 3.31-0.06 3.31-2.06 5.31-3.3-3.3-2.02-15.3-2.06-20.1 0-3.3 0.01-6.59 0.06-9.89 3 2 3 2 3.69 4.62 0.1 0.79 0.2 1.57 0.31 2.38 0.99-0.33 1.98-0.66 3-1-0.5-0.54-0.99-1.07-1.5-1.62-1.87-2.97-1.74-4.93-1.5-8.38 0.99-0.33 1.98-0.66 3-1 0.5 0.99 0.5 0.99 1 2l2-3c-0.45-0.58-0.91-1.15-1.38-1.75-1.46-2.03-2.57-3.99-3.62-6.25l4-1c-0.01-0.83-0.02-1.66-0.04-2.52 0-1.09-0.01-2.17-0.02-3.29-0.01-1.08-0.03-2.16-0.04-3.27 0.1-2.92 0.1-2.92 1.1-5.92-0.39-2.14-0.39-2.14-1-4h4l-3-2h3l-1-2c-0.99-0.33-1.98-0.66-3-1-0.5-0.99-0.5-0.99-1-2-0.99 0.5-0.99 0.5-2 1v-7c1.98-0.5 1.98-0.5 4-1l-4-3 1-4c1.49 0.99 1.49 0.99 3 2l-1.38-1.38c-3.58-3.58-4.05-5.5-4.62-10.6 0.99-0.5 0.99-0.5 2-1-1.61-2.71-3.25-5.37-5-8 1-2 1-2 2.81-2.64 1.09-0.3 1.09-0.3 2.19-0.61 2.16-0.71 2.16-0.71 4-1.75 1.34-2.85 1.34-2.85 1-6-0.39-0.78-0.78-1.57-1.19-2.38-0.81-2.62-0.81-2.62-0.02-4.5 0.77-1.37 1.54-2.75 2.32-4.12 1.29-2.89 0.78-5.03-0.11-8h5l-1-2c-1.98 0.5-1.98 0.5-4 1v-3c-0.56 0.15-1.13 0.3-1.71 0.46-2.31 0.54-4.56 0.89-6.91 1.16-1.17 0.15-1.17 0.15-2.36 0.29-2.02 0.09-2.02 0.09-4.02-0.91l1-3c1.49 0.5 1.49 0.5 3 1 0.57-3.73 1-7.21 1-11l2-1c0.73-1.98 1.4-3.98 2-6h4c-0.35-1.22-0.7-2.43-1.06-3.69-0.86-3.43-1.15-5.89 0.06-9.31l2-2c1.94 0.75 1.94 0.75 4 2 0.63 2.08 0.63 2.08 1 4 0.04-0.7 0.07-1.4 0.11-2.12 0.07-0.91 0.13-1.82 0.2-2.76 0.09-1.35 0.09-1.35 0.18-2.74 0.51-2.38 0.51-2.38 3.51-4.38z" fill="#222324"/>
<path transform="translate(1287 546)" d="m0 0c1.14 0 2.27 0 3.44 0.01 7.5 0.03 14.9 0.33 22.4 0.9 3.18 0.2 6.29 0.21 9.48 0.15 16.3-0.08 32.7 2.31 48.9 4.23 1.88 0.22 3.76 0.44 5.63 0.66 2.67 0.31 5.33 0.63 7.99 0.96 1.21 0.14 1.21 0.14 2.45 0.28 3.67 0.46 5.87 0.85 9 2.93 2.04 0.49 2.04 0.49 4.28 0.72 0.84 0.1 1.67 0.21 2.54 0.32 0.88 0.11 1.77 0.23 2.68 0.34 6.7 0.92 12.8 2.06 19.1 4.66 2.61 1.04 5.2 1.73 7.93 2.4 5.84 1.55 11.1 3.8 16.5 6.56 0.88 0.45 1.75 0.89 2.66 1.34 1.22 0.7 1.22 0.7 2.47 1.42 0.72 0.4 1.44 0.81 2.19 1.23 5.13 6.16 2.8 19.8 2.78 27.6 0 1.61-0.01 3.21-0.01 4.81 0 4.19-0.01 8.37-0.02 12.6-0.01 4.28-0.02 8.57-0.02 12.8-0.01 8.39-0.03 16.8-0.05 25.2-2.71 1.36-5.07 1.24-8.04 0.82-2.62-1.09-3.11-2.19-4.27-4.75-0.61-1.68-1.17-3.37-1.69-5.07-0.3-0.89-0.6-1.79-0.9-2.71-2.1-6.58-2.1-6.58-2.1-10.3h-2c-0.22-0.61-0.44-1.23-0.66-1.87-2.12-5.65-4.63-10.4-8.17-15.3-1.17-1.82-1.17-1.82-1.17-3.82h-2c-1.33-1.68-2.59-3.42-3.81-5.18-4.44-6.25-9.32-11-15.2-15.8-0.44-0.46-0.87-0.92-1.32-1.4-2.27-2.15-4.76-3.76-7.37-5.47-1.06-0.7-2.13-1.41-3.23-2.13-3.12-2.02-6.25-4.03-9.42-5.98-1.4-0.86-2.78-1.74-4.16-2.64-2.75-1.52-5.52-2.57-8.47-3.63-1.81-0.66-3.58-1.42-5.34-2.18-12.3-5.3-24.7-9-38.3-8.54-2.34-0.02-4.12-0.36-6.35-1.03-3.23-0.95-6.05-1.07-9.41-0.99-8.35 0.07-16.6-0.69-24.9-1.38-1.2-0.1-2.39-0.19-3.63-0.29-1.61-0.13-1.61-0.13-3.26-0.26-2.57-0.07-4.39 0.23-6.83 0.92-2.75-0.43-5.31-1.23-8-2v2c-0.74 0.05-1.48 0.1-2.24 0.15-9.46 0.7-18.5 1.83-27.5 5.07-2.27 0.78-2.27 0.78-5.52 1.62-5.03 1.56-9.43 3.95-14 6.42-1.02 0.53-1.02 0.53-2.06 1.07-0.6 0.32-1.21 0.64-1.83 0.97-1.81 0.7-1.81 0.7-5.81 0.7v2c-0.91 0.51-1.81 1.02-2.75 1.54-11.6 6.5-11.6 6.5-22.4 14.1-1.88 1.33-1.88 1.33-3.88 1.33-0.33 1-0.66 1.99-1 3-1.56 1.61-1.56 1.61-3.44 3.19-0.61 0.53-1.23 1.06-1.87 1.61-1.69 1.2-1.69 1.2-3.69 1.2-0.23 0.56-0.45 1.12-0.69 1.69-1.68 2.96-3.9 4.91-6.31 7.31-2.02 2.22-3.98 4.48-5.94 6.76-0.53 0.61-1.05 1.22-1.6 1.86-3.41 4.02-6.51 8.11-9.28 12.6-1.18 1.76-1.18 1.76-2.64 3.13-2.13 2.27-3.19 4.84-4.54 7.63-1.14 1.9-2.29 3.8-3.44 5.69-11.8 20.2-21 43.2-26.8 65.9-1.12 4.18-2.41 6.66-5.77 9.42-0.66-0.33-1.32-0.65-2-1-0.37-1.65-0.71-3.32-1-5-0.33-0.33-0.66-0.65-1-1-0.04-1.66-0.04-3.33 0-5l4-2-1-3c0.33-0.65 0.66-1.31 1-2-0.66-0.33-1.32-0.65-2-1h2l-1-3h3c0.55-2.07 1-3.84 1-6-1.32 1-2.64 1.99-4 3-0.99-1.64-1.98-3.29-3-5-3.02 0.59-6.01 1.25-9 2-0.09 1.33-0.09 1.33-0.18 2.67-0.09 1.16-0.17 2.33-0.26 3.52-0.08 1.15-0.16 2.3-0.24 3.48-0.27 2.85-0.76 5.53-1.32 8.33v4c-2.97 1-2.97 1-6 2-0.07 2.5-0.1 4.65 0.56 7.07 0.52 2.29 0.15 3.72-0.56 5.93h-2c0.49 0.5 0.99 1 1.5 1.5 2.2 3.67 1.77 6.25 1.5 10.5-0.33 1-0.66 1.99-1 3-0.78-0.04-1.57-0.08-2.37-0.12-2.79-0.16-2.79-0.16-4.63 2.12-1.65 0.71-3.32 1.38-5 2 0.33 1 0.66 1.99 1 3-0.31 1.08-0.62 2.15-0.94 3.26-1.23 3.7-1.23 3.7-1.06 7.5 0 3.24 0 3.24-2 6.24-0.93-0.65-1.86-1.31-2.81-2-2.99-2.26-2.99-2.26-6.19-2-3.31 1.71-3.31 1.71-3.69 5.13-0.1 0.95-0.2 1.9-0.31 2.87h-3c-2.03-3.31-2.13-5.43-1.63-9.24 0.17-1.34 0.17-1.34 0.34-2.71 0.1-0.67 0.19-1.35 0.29-2.05-0.33 0.34-0.66 0.66-1 1-1.48 1-1.48 1-3 2v-4c-0.66-0.65-1.32-1.31-2-2l1-3c-0.6-2.35-1.26-4.68-2-7 1.37-1.5 1.37-1.5 3-3h2l2 2c-0.02-0.94-0.04-1.89-0.06-2.87 0.06-3.13 0.06-3.13 1.06-5.13-0.58 0.21-1.15 0.42-1.75 0.63-2.77 0.46-3.9-0.2-6.25-1.63h2v-5c1.32 0.34 2.64 0.66 4 1l2-4c4.87 1.76 4.87 1.76 6 4 0.41-0.51 0.83-1.03 1.25-1.56 0.58-0.47 1.15-0.95 1.75-1.44 2.19 0.32 2.19 0.32 4 1 1-3.58 1-3.58 0-7h2v-10h5c0.33-1.31 0.66-2.63 1-4v2h3c-0.99-2.47-0.99-2.47-2-5-0.66 0.34-1.32 0.66-2 1v-3c-0.66-0.33-1.32-0.65-2-1 0.33-1.64 0.66-3.29 1-5-1.98 1.99-1.98 1.99-4 4-1.32-0.65-2.64-1.31-4-2-0.12 1.3-0.25 2.6-0.37 3.94-0.22 2.22-0.22 2.22-0.63 4.06-0.66 0.34-1.32 0.66-2 1v-2c-0.66-0.33-1.32-0.65-2-1h2v-2h-3v5h-3c0.16-1.11 0.33-2.22 0.5-3.37 0.55-3.35 0.55-3.35 0.5-5.63v-4c0.62 0.19 1.24 0.38 1.87 0.57 2.17 0.67 2.17 0.67 4.13-0.57v2h5c-1.71-3.31-1.71-3.31-5.13-3.68-1.42-0.16-1.42-0.16-2.87-0.32-0.13-6.62-0.13-6.62 1-10h-4c0.37-2.43 0.37-2.43 1-5 0.66-0.33 1.32-0.65 2-1 2.1-5.18 3-10.4 3-16 2.19-5.52 5.34-11.3 9-16h2c0.27-0.72 0.54-1.45 0.82-2.21 1.15-2.71 2.47-4.97 4.12-7.41 0.5-0.76 1.01-1.51 1.52-2.29 1.4-1.9 2.82-3.48 4.54-5.09 2.88-2.65 2.88-2.65 4.91-5.94 1.21-2.27 2.41-3.39 4.4-4.99 2.11-1.74 4.07-3.44 6-5.38 7.88-7.87 16.1-15 25.7-20.7 0.45-0.47 0.91-0.94 1.37-1.43 1.96-1.88 4.14-3.05 6.52-4.31 1.89-1.13 3.6-2.34 5.37-3.65 3.59-2.59 7.32-4.57 11.3-6.48 1.41-0.69 2.82-1.37 4.23-2.06 0.7-0.34 1.4-0.69 2.13-1.04 1.99-0.98 3.95-1.99 5.92-3.03 6.36-3.32 12.1-5.68 19.2-7 0.33-0.65 0.66-1.32 1-2 2.14-0.76 4.31-1.43 6.5-2.06 4.06-0.88 4.06-0.88 7.5-2.94 1.85-0.23 3.7-0.41 5.56-0.56 1.01-0.08 2.03-0.17 3.07-0.25 0.78-0.06 1.56-0.12 2.37-0.19v-3c1.13-0.1 2.25-0.21 3.41-0.33 7.33-0.74 14.6-1.56 21.8-3.1 6.47-1.38 12.9-2.34 19.5-3.19 0.94-0.12 1.87-0.25 2.84-0.37 11.1-1.41 22-2.18 33.2-2.13zm12.2 11.1v1h12v-1h-12z" fill="#222324"/>
<path transform="translate(528,519)" d="m0 0 1 2h2c0.73 1.4 0.73 1.4 1.47 2.82 3.98 7.6 8.16 15 12.7 22.2 1.98 3.2 3.83 6.44 5.62 9.74 1.32 2.41 2.68 4.79 4.04 7.17 1.28 2.24 2.55 4.49 3.82 6.74 5.15 9.08 10.4 18.1 16 26.9 2.86 4.51 5.45 9.11 7.95 13.8 2.05 3.7 4.32 7.24 6.62 10.8 4.71 7.29 9.14 14.7 13.5 22.2l3.72 6.39c0.61 1.05 1.21 2.09 1.84 3.16 2.45 4.22 4.91 8.43 7.37 12.6 0.39 0.67 0.78 1.34 1.18 2.03 2.28 3.87 4.69 7.62 7.2 11.4 0.94 1.65 1.87 3.3 2.8 4.95 2.02 3.45 4.23 6.77 6.42 10.1 1.35 2.23 2.53 4.4 3.67 6.74 2.2 4.49 4.78 8.71 7.42 13 3.21 5.2 6.39 10.4 9.44 15.7 2.18 3.77 4.45 7.46 6.81 11.1 2.88 4.48 5.46 9.06 7.98 13.8 1.86 3.42 3.85 6.76 5.88 10.1 3.52 5.81 7 11.6 10.5 17.5 4.56 7.64 9.12 15.3 14 22.7 10.1 15.6 10.1 15.6 10.1 19.4l2 1c0.97 1.42 1.88 2.89 2.75 4.38 0.8 1.36 0.8 1.36 1.63 2.76 1.5 2.64 2.94 5.3 4.37 7.98 2.58 4.8 5.41 9.4 8.31 14 9.94 15.8 9.94 15.8 9.94 18.9 0.99 0.33 1.98 0.66 3 1 0.98 2.28 1.14 3.52 0.43 5.9-0.32 0.65-0.65 1.3-0.98 1.96-0.35 0.73-0.7 1.45-1.06 2.19-0.56 1.12-0.56 1.12-1.14 2.26-0.73 1.48-1.45 2.95-2.17 4.43-0.36 0.72-0.72 1.44-1.08 2.19-1.44 2.98-2.7 6.03-4 9.07-1.37 2.99-2.78 5.96-4.19 8.94-0.37 0.78-0.73 1.56-1.11 2.36l-2.7 5.7h-2c-0.08 1.34-0.08 1.34-0.16 2.71-0.86 6-3.73 11.4-6.22 16.8-0.74 1.67-0.74 1.67-1.5 3.37-2.27 5.08-4.61 10.1-7.12 15.1l-2-1v-2h-2c-3.14-7.41-5.78-15-8.36-22.6-1.63-4.75-3.44-9.33-5.52-13.9-2.39-5.34-4.58-10.8-6.81-16.2-0.53-1.28-1.06-2.57-1.59-3.85-14.3-34.6-14.3-34.6-21-51.9-4.6-11.8-9.26-23.6-14.6-35.1-1.63-3.62-3.05-7.3-4.42-11-1.25-3.35-2.61-6.65-4-9.94-1.95-4.63-3.76-9.29-5.5-14-4.67-12.6-9.71-25-14.9-37.4-1.3-3.18-2.53-6.38-3.75-9.59-2.8-7.32-5.8-14.5-9.17-21.5-2.03-4.27-3.82-8.51-5.35-13-3.62-10.4-3.62-10.4-7.9-20.5-1.5-3.47-2.79-7-4.1-10.5-1.85-5-3.77-9.93-6-14.8-3.39-7.51-6.5-15.2-9.38-22.9-1.79-4.8-3.7-9.55-5.62-14.3-0.67-1.67-1.33-3.33-2-5-0.98-2.44-1.95-4.89-2.93-7.33-1.68-4.2-3.36-8.4-5.03-12.6-3.61-9.05-7.25-18.1-11-27.1-8-19-8-19-8-23h-2c-1.03-2.27-2.05-4.54-3.06-6.81-0.44-0.97-0.44-0.97-0.9-1.95-2.15-4.9-2.15-4.9-1.04-8.24z" fill="#272829"/>
<path transform="translate(623,510)" d="m0 0c3.24 2.16 3.71 3.07 5.25 6.5 3.04 6.35 7.04 11.8 11.2 17.5 1.89 2.59 3.58 5.08 4.99 7.97 2.07 4.06 4.79 7.46 7.56 11.1 2.55 3.42 4.95 6.82 7 10.6 1.9 3.49 1.9 3.49 4.5 6.44 2.24 2.69 3.86 5.21 5.52 8.26 0.99 1.76 2.08 3.4 3.23 5.05 1.75 2.69 1.75 2.69 1.75 4.69h2c1.26 1.58 1.26 1.58 2.69 3.81 0.52 0.82 1.05 1.63 1.59 2.47 0.57 0.9 1.13 1.8 1.72 2.72 0.93 1.44 0.93 1.44 1.88 2.91 4.87 7.56 4.87 7.56 6.14 10.2 0.88 1.9 0.88 1.9 2.35 3.22 2.33 2.34 3.95 5.1 5.69 7.89 0.8 1.26 1.61 2.53 2.41 3.79 0.41 0.65 0.83 1.3 1.26 1.98 2.07 3.23 4.2 6.42 6.33 9.6 0.43 0.64 0.85 1.27 1.29 1.93 0.83 1.24 1.67 2.49 2.5 3.73 1.62 2.42 3.23 4.85 4.84 7.28 5.75 8.63 11.6 17.2 17.5 25.7 1.71 2.5 3.42 5 5.12 7.5 0.97 1.42 1.95 2.84 2.92 4.26 0.43 0.64 0.86 1.27 1.31 1.93 1.8 2.62 3.63 5.17 5.64 7.63 1.85 2.36 3.14 4.64 4.48 7.32 2.65 4.95 5.69 9.42 9 14 5.78 7.95 11.2 16.2 16.6 24.4 2.25 3.42 4.54 6.79 6.95 10.1 5.87 8.14 5.87 8.14 5.88 12.2-0.74 2.4-1.76 4.33-3.01 6.51-0.66 1.68-1.31 3.37-1.94 5.06-1.49 3.68-3.16 7.19-4.98 10.7-2.25 4.64-4.14 9.45-6.08 14.2h-2c0.05 0.88 0.09 1.76 0.14 2.66-0.15 3.54-0.85 5.56-2.39 8.72-0.46 0.95-0.91 1.9-1.38 2.88-1.16 2.32-2.32 4.62-3.49 6.93-2.9 5.71-4.9 11.7-6.88 17.8h-2c-3.73-6.99-6.84-14-9.54-21.4-2.11-5.78-4.5-11.4-6.96-17.1-3.3-7.57-6.34-15.2-9.11-23-1.01-2.58-2.06-4.93-3.31-7.38-2.31-4.51-4.17-9.14-6.02-13.8-0.35-0.88-0.69-1.75-1.05-2.66-2.33-5.89-4.61-11.8-6.87-17.7-1.55-4-3.22-7.95-4.89-11.9-1.7-4.11-3.28-8.27-4.84-12.4-2.05-5.23-4.24-10.4-6.41-15.6-1.75-4.19-3.49-8.39-5.23-12.6-0.51-1.24-1.03-2.47-1.54-3.71-3.17-7.61-6.24-15.2-9.16-23-0.93-2.39-1.93-4.73-3.01-7.06-1.84-4.03-3.36-8.16-4.87-12.3-2-5.46-4.22-10.7-6.75-15.9-3.01-6.22-5.23-12.5-7.33-19.1-1.15-3.48-2.53-6.74-4.08-10.1-1.29-2.89-2.41-5.84-3.53-8.8-1.66-4.36-3.41-8.63-5.34-12.9-1.6-3.62-3.1-7.28-4.6-10.9-0.3-0.74-0.6-1.47-0.91-2.23-0.6-1.46-1.2-2.92-1.8-4.39l-3.66-8.88c-0.38-0.92-0.76-1.83-1.15-2.77-0.63-1.48-1.3-2.94-2.02-4.37-1.79-3.6-3.2-7.36-4.7-11.1-1.25-2.82-2.73-5.33-4.32-7.97-2-6.21-2-6.21-2-9z" fill="#272829"/>
<path transform="translate(1287 546)" d="m0 0c1.14 0 2.27 0 3.44 0.01 7.5 0.03 14.9 0.33 22.4 0.9 3.18 0.2 6.29 0.21 9.48 0.15 16.3-0.08 32.7 2.31 48.9 4.23 1.88 0.22 3.76 0.44 5.63 0.66 2.67 0.31 5.33 0.63 7.99 0.96 1.21 0.14 1.21 0.14 2.45 0.28 3.67 0.46 5.87 0.85 9 2.93 2.04 0.49 2.04 0.49 4.28 0.72 0.84 0.1 1.67 0.21 2.54 0.32 0.88 0.11 1.77 0.23 2.68 0.34 6.7 0.92 12.8 2.06 19.1 4.66 2.61 1.04 5.2 1.73 7.93 2.4 5.84 1.55 11.1 3.8 16.5 6.56 0.88 0.45 1.75 0.89 2.66 1.34 1.22 0.7 1.22 0.7 2.47 1.42 0.72 0.4 1.44 0.81 2.19 1.23 5.13 6.16 2.8 19.8 2.78 27.6 0 1.61-0.01 3.21-0.01 4.81 0 4.19-0.01 8.37-0.02 12.6-0.01 4.28-0.02 8.57-0.02 12.8-0.01 8.39-0.03 16.8-0.05 25.2-2.71 1.36-5.07 1.24-8.04 0.82-2.62-1.09-3.11-2.19-4.27-4.75-0.61-1.68-1.17-3.37-1.69-5.07-0.3-0.89-0.6-1.79-0.9-2.71-2.1-6.58-2.1-6.58-2.1-10.3h-2c-0.22-0.61-0.44-1.23-0.66-1.87-2.12-5.65-4.63-10.4-8.17-15.3-1.17-1.82-1.17-1.82-1.17-3.82h-2c-1.33-1.68-2.59-3.42-3.81-5.18-4.44-6.25-9.32-11-15.2-15.8-0.44-0.46-0.87-0.92-1.32-1.4-2.27-2.15-4.76-3.76-7.37-5.47-1.06-0.7-2.13-1.41-3.23-2.13-3.12-2.02-6.25-4.03-9.42-5.98-1.4-0.86-2.78-1.74-4.16-2.64-2.75-1.52-5.52-2.57-8.47-3.63-1.81-0.66-3.58-1.42-5.34-2.18-12.3-5.3-24.7-9-38.3-8.54-2.34-0.02-4.12-0.36-6.35-1.03-3.23-0.95-6.05-1.07-9.41-0.99-8.35 0.07-16.6-0.69-24.9-1.38-1.2-0.1-2.39-0.19-3.63-0.29-1.61-0.13-1.61-0.13-3.26-0.26-2.57-0.07-4.39 0.23-6.83 0.92-2.75-0.43-5.31-1.23-8-2v2c-0.74 0.05-1.48 0.1-2.24 0.15-9.46 0.7-18.5 1.83-27.5 5.07-2.27 0.78-2.27 0.78-5.52 1.62-5.03 1.56-9.43 3.95-14 6.42-1.02 0.53-1.02 0.53-2.06 1.07-0.6 0.32-1.21 0.64-1.83 0.97-1.81 0.7-1.81 0.7-5.81 0.7v2c-2.23 1.3-4.46 2.59-6.69 3.88-0.62 0.36-1.25 0.73-1.89 1.11-9.23 5.31-9.23 5.31-13.7 4.2-2.75-1.19-2.75-1.19-3.75-2.19-0.49 1-0.49 1-1 2-2 0-2 0-4.13-2-0.61-0.65-1.23-1.32-1.87-2-1.48 0.5-1.48 0.5-3 1v2c-1.48 0.2-2.96 0.39-4.44 0.57-0.82 0.1-1.64 0.21-2.49 0.31-1.03 0.06-1.03 0.06-2.07 0.12-0.33-0.33-0.66-0.65-1-1-0.66 0.54-1.32 1.08-2 1.63-0.99 0.78-1.98 1.57-3 2.37-0.66 0.55-1.33 1.09-2.01 1.64-1.05 0.83-1.05 0.83-2.12 1.68-0.66 0.53-1.32 1.06-2 1.61-0.62 0.36-1.24 0.71-1.87 1.07-3-1-3-1-5-3-0.99 0.5-0.99 0.5-2 1v2h-2c-0.49 1-0.49 1-1 2v-2h-3c-0.27 0.97-0.54 1.94-0.81 2.94-0.59 1.52-0.59 1.52-1.19 3.06-3.77 1.26-5.37 0.38-9-1-0.33 1-0.66 1.99-1 3-2.81 1.07-2.81 1.07-6 2-0.72 0.38-1.44 0.75-2.19 1.13-1.81 0.87-1.81 0.87-4.81 0.87-0.33 1-0.66 1.99-1 3-0.99 0.5-0.99 0.5-2 1-0.65 2.03-0.65 2.03-1 4-0.96 0.19-0.96 0.19-1.94 0.38-1.02 0.31-1.02 0.31-2.06 0.62l-1 2c-0.91 0.18-0.91 0.18-1.83 0.36-3.02 0.9-3.99 2.52-5.86 5.02-0.6 0.79-1.2 1.58-1.82 2.4-1.64 2.24-1.64 2.24-2.49 5.22-1.33 0.67-2.67 1.34-4 2-0.33 1-0.66 1.99-1 3h-3c-0.06 0.62-0.12 1.24-0.19 1.88-0.81 2.12-0.81 2.12-3.37 3.38-0.81 0.24-1.61 0.49-2.44 0.74 0.44-4.82 1.34-6.85 5-10 2.88-2.65 2.88-2.65 4.91-5.94 1.2-2.27 2.4-3.39 4.4-4.99 2.11-1.74 4.07-3.44 6-5.38 7.88-7.87 16.1-15 25.7-20.7 0.45-0.47 0.91-0.94 1.37-1.43 1.96-1.88 4.14-3.05 6.52-4.31 1.89-1.13 3.6-2.34 5.37-3.65 3.59-2.59 7.32-4.57 11.3-6.48 1.41-0.69 2.82-1.37 4.23-2.06 0.7-0.34 1.4-0.69 2.13-1.04 1.99-0.98 3.95-1.99 5.92-3.03 6.36-3.32 12.1-5.68 19.2-7 0.33-0.65 0.66-1.32 1-2 2.14-0.76 4.31-1.43 6.5-2.06 4.06-0.88 4.06-0.88 7.5-2.94 1.85-0.23 3.7-0.41 5.56-0.56 1.01-0.08 2.03-0.17 3.07-0.25 0.78-0.06 1.56-0.12 2.37-0.19v-3c1.13-0.1 2.25-0.21 3.41-0.33 7.33-0.74 14.6-1.56 21.8-3.1 6.47-1.38 12.9-2.34 19.5-3.19 0.94-0.12 1.87-0.25 2.84-0.37 11.1-1.41 22-2.18 33.2-2.13zm12.2 11.1v1h12v-1h-12z" fill="#212223"/>
<path transform="translate(386,677)" d="m0 0 4 1c-0.06 1.09-0.12 2.19-0.19 3.31-0.17 3.61-0.17 3.61 1.69 5.63 0.5 0.35 0.99 0.7 1.5 1.06l-4 1 2 10h2l1 3c1.98-0.66 3.96-1.32 6-2 1.89 2.39 3.02 4.07 4 7l-2 3c1.88 2.61 3.9 5.07 6 7.5 2.1 2.44 4.14 4.87 6 7.5 0.72 0.97 1.44 1.94 2.19 2.94 1.81 3.06 1.81 3.06 1.75 5.56 0.08 3.34 1.71 4.46 3.88 6.82 2.11 3 1.95 6.08 2.18 9.68 0.32 1.34 0.66 2.67 1 4v3c2.29 2.68 3.62 3.87 7 5 0.93 5.42 1.21 8.8-1 14h-2v2c0.99 0.33 1.98 0.66 3 1-1.21 0.22-1.21 0.22-2.44 0.44-2.48 0.3-2.48 0.3-3.56 1.56l4 1v11h-2c0.02 1.13 0.04 2.27 0.06 3.44-0.06 3.56-0.06 3.56-1.06 4.56 0 1.44 0.06 2.89 0.16 4.33 0.05 0.88 0.1 1.76 0.16 2.67 0.12 1.86 0.24 3.73 0.36 5.59 0.06 0.88 0.11 1.77 0.16 2.68 0.08 1.22 0.08 1.22 0.17 2.46-0.01 2.27-0.4 4.09-1.01 6.27v2c0.62 0.21 1.24 0.41 1.88 0.62 2.97 1.93 3.25 4.05 4.12 7.38l-2 1-1 3-5 1 2 4-4 3c0.99 0.33 1.98 0.66 3 1v5c-5.63 2-5.63 2-9 2v3h2l2-2 1 2c0.99 0.33 1.98 0.66 3 1 0.18 9.41 0.18 9.41-1 14h-2l1 4h-2v2c2.65 1.08 5.28 2.09 8 3h-2v2l2 1h-4v3h-2l2 3c1.16 5.13 0.74 8.11-1 13 0.28 2.29 0.28 2.29 1 4-6.75 1.12-6.75 1.12-9 0 0.23 0.63 0.46 1.25 0.69 1.9 0.43 1.22 0.43 1.22 0.87 2.48 0.44 1.21 0.44 1.21 0.88 2.46 0.56 2.16 0.56 2.16-0.44 4.16-2.06 0.62-2.06 0.62-4 1 2.97 0.99 2.97 0.99 6 2-0.46 3.47-0.89 6.67-2 10l-2-1v-4c-0.99 2.31-1.98 4.62-3 7l-10 1 4-1c-1.25-1.58-1.25-1.58-3-3h-4c-1.3-4.86-1.5-10-1-15l2-3 2 1c-0.61-2.96-1.25-4.38-3-7l4-2v-5c-0.99 0.33-1.98 0.66-3 1-0.8-0.66-1.61-1.32-2.44-2-1.27-0.99-1.27-0.99-2.56-2-2.13 0.31-2.13 0.31-4 1-0.05-1.77-0.09-3.54-0.12-5.31-0.03-0.99-0.05-1.97-0.08-2.99 0.2-2.7 0.2-2.7 2.2-5.7-1.49-2.48-1.49-2.48-3-5 0.99-0.33 1.98-0.66 3-1 1.84-2.27 1.84-2.27 3-5-0.34-2.02-0.34-2.02-1-4 0.27-1.68 0.62-3.34 1-5 0.34-2.33 0.68-4.66 1-7h-2l-2-3c-1.98 0.33-3.96 0.66-6 1-1.23-3.69-0.64-6.21 0-10h10v-4c-1.98-0.33-3.96-0.66-6-1-1-6.31-1.51-12.6-2-19h3c0.18-2.32 0.18-2.32-2-5 3 0 3 0 6 2 0.12-0.8 0.25-1.61 0.38-2.44 0.2-0.84 0.41-1.69 0.62-2.56l2-1-2-6 4-4c-1.49-0.99-1.49-0.99-3-2-2.1 0.41-2.1 0.41-4.19 1.38-0.71 0.29-1.43 0.59-2.17 0.89-0.54 0.24-1.08 0.48-1.64 0.73v-3c-3.46 0.5-3.46 0.5-7 1l1 2h-2c-0.06 0.61-0.12 1.23-0.18 1.86-0.09 0.81-0.17 1.62-0.26 2.45-0.08 0.8-0.16 1.6-0.24 2.43-0.32 2.26-0.32 2.26-1.32 5.26-0.99-0.33-1.98-0.66-3-1v-30h1l1-6h2c-0.5-1.05-0.5-1.05-1-2.12-1.1-3.17-1.22-5.55-1-8.88 0.5-0.99 0.5-0.99 1-2 0.21-2.27 0.37-4.54 0.5-6.81 0.25-4.17 0.67-8.1 1.5-12.2 0.09-1.56 0.13-3.12 0.12-4.69 0.01-1.15 0.01-1.15 0.01-2.32-0.01-2.06-0.01-2.06-1.13-3.99h2v-3l2 1c0.36 3.07 0.44 6.12 0.56 9.21 0.22 1.38 0.22 1.38 0.44 2.79l3 2c2.06-1.29 2.06-1.29 4-3v-3l3-2 1 2 1-4c-1.49 0.5-1.49 0.5-3 1-0.99-1.32-1.98-2.64-3-4l-2 3c-1-1-1-1-1.06-3.88 0.02-1.03 0.04-2.06 0.06-3.12v-3-3h-3v-14l4 2c0.99-1.65 1.98-3.3 3-5-2.22-1.3-2.22-1.3-6-1-1.18-3.68-1-7.16-1-11-0.25-1.14-0.25-1.14-0.5-2.3-0.6-3.22-0.6-6.24-0.56-9.51 0.01-1.16 0.02-2.33 0.02-3.52 0.02-0.88 0.03-1.76 0.04-2.67z" fill="#222324"/>
<path transform="translate(1088,937)" d="m0 0c1.5 1.31 1.5 1.31 3 3v3l5-1c0.99 1.49 0.99 1.49 2 3-2.89 0.83-4.89 1-8 1 1.98 0.66 3.96 1.32 6 2 0.1 0.76 0.21 1.53 0.31 2.31 0.76 2.95 1.33 3.86 3.69 5.69 2.1 1.18 2.1 1.18 4 2l-2 4c0.99 0.33 1.98 0.66 3 1 1.31 2.88 1.31 2.88 2 6l-2 3v4l2-4c1.75 0.12 1.75 0.12 4 1 3.83 5.07 6.04 10 8 16 0.66 1.67 1.33 3.34 2 5l1 3c1.98-0.5 1.98-0.5 4-1l3 6-4 4c4.45-0.5 4.45-0.5 9-1 1.39 2.96 2 4.87 1.94 8.19 0.02 0.93 0.04 1.85 0.06 2.81l3 2 4-2 4 4c-0.99 0.5-0.99 0.5-2 1l1 2h3c0.08 0.93 0.16 1.86 0.25 2.81 0.45 3.28 0.45 3.28 2.81 5.07 0.96 0.55 0.96 0.55 1.94 1.12-0.31 1.67-0.31 1.67-0.62 3.38-0.19 1.79-0.19 1.79-0.38 3.62l2 2c2.6-0.32 2.6-0.32 5-1v3c-5.75 2-5.75 2-8 2l-2-3c-0.49 1.48-0.49 1.48-1 3 1.98 0.66 3.96 1.32 6 2-0.49 1.98-0.49 1.98-1 4-1.48-0.49-1.48-0.49-3-1l-1 1v3c-9.52 0.86-9.52 0.86-13.6-2.19-0.56-0.46-1.11-0.92-1.68-1.4-1.91-1.53-3.84-2.59-6.01-3.72-8.06-4.38-15.2-10-22-16.2-2.87-2.57-5.87-4.94-9.02-7.15-0.56-0.46-1.12-0.91-1.69-1.38v-2h-2v-2c-1.48-0.5-1.48-0.5-3-1 0.19-0.62 0.37-1.24 0.56-1.88 0.68-2.16 0.68-2.16-0.56-4.12-1.48-0.5-1.48-0.5-3-1-0.12-0.8-0.25-1.61-0.38-2.44-0.2-0.84-0.41-1.69-0.62-2.56l-2-1c8.04-1.45 8.04-1.45 12.1 0.44 0.64 0.51 1.28 1.03 1.94 1.56l-1-4c1.98-0.5 1.98-0.5 4-1l-8-1v-3c-0.93-0.19-0.93-0.19-1.88-0.38-2.12-0.62-2.12-0.62-4.12-2.62 0.8-0.12 1.61-0.25 2.44-0.38 0.84-0.2 1.69-0.41 2.56-0.62l1-2h-6v-5c-1.98-0.33-3.96-0.66-6-1l2-8h2v-2h-7v-3c-0.45-1.41-0.96-2.81-1.5-4.19-0.28-0.71-0.56-1.43-0.84-2.17-0.33-0.81-0.33-0.81-0.66-1.64h2c-0.12-1.73-0.24-3.46-0.38-5.19-0.1-1.44-0.1-1.44-0.21-2.92-0.58-4.07-1.48-6.96-4.41-9.89h10c1.03-2.06 2.06-4.12 3.06-6.19 0.94-1.81 0.94-1.81 1.94-2.81z" fill="#222324"/>
<path transform="translate(1047,784)" d="m0 0c3.31 1.57 6.11 3.76 9 6 0.78-0.5 1.57-0.99 2.38-1.5 2.62-1.5 2.62-1.5 4.62-1.5l1-2h2v2l7-2c-0.28 1.18-0.28 1.18-0.56 2.38-0.7 2.59-0.7 2.59 0.56 4.62l-4 1v2l4-2 2 4 2-1 2 1v3h-2c0.14 0.6 0.29 1.21 0.44 1.83 0.28 1.2 0.28 1.2 0.56 2.42 0.19 0.79 0.37 1.58 0.56 2.39 0.44 2.36 0.44 2.36 0.44 6.36h-7l2 6c-0.96 0.5-0.96 0.5-1.94 1-2.61 2.53-2.59 4.54-2.84 8.07-0.22 1.93-0.22 1.93-1.41 4.18-0.27 0.58-0.53 1.15-0.81 1.75 0.78 2.23 0.78 2.23 2 4l-3 2c0.37 1.01 0.74 2.02 1.12 3.06 1.2 4.16 0.12 6.8-1.12 10.9-0.18 3.67-0.12 7.33 0 11h3c1.38 2.27 2.06 3.5 1.75 6.19-0.75 1.81-0.75 1.81-2.75 2.81v2l4 1 2-4 1 2c0.99 0.33 1.98 0.66 3 1 3.05 4.21 3.05 4.21 4 7-0.75 3.44-0.75 3.44-2 6 1.93 2.02 3.63 3.42 6 5 0.4 2.09 0.4 2.09 0.38 4.5 0.01 1.19 0.01 1.19 0.02 2.41-0.13 0.69-0.26 1.38-0.4 2.09l-3 2c-0.79 2.79-1 5.1-1 8l-4-1-1-4c-4.07 1.85-7.01 3.66-10 7l-2-1c-4.65 0.44-4.65 0.44-9 2-3.41-2.88-4.87-4.37-5.81-8.81-0.06-1.05-0.13-2.11-0.19-3.19h-1v11h-2c-0.36-1.46-0.71-2.92-1.06-4.38-0.2-0.81-0.4-1.62-0.6-2.46-0.34-2.16-0.34-2.16 0.66-4.16-0.99-0.33-1.98-0.66-3-1l4-2c-0.93-1.33-0.93-1.33-1.88-2.69-3.41-5.33-3.41-5.33-4.12-8.31 1.38-2.12 1.38-2.12 3-4v-3c0.99-0.5 0.99-0.5 2-1-0.39-0.72-0.78-1.44-1.19-2.19-0.81-2.81-0.81-2.81 0.57-5.62 0.53-0.72 1.07-1.45 1.62-2.19 0.99 0.33 1.98 0.66 3 1 0.29-0.64 0.58-1.28 0.88-1.94 1.12-2.06 1.12-2.06 3.12-3.06 1.03-1.31 2.04-2.64 3-4l2 2c1.48-0.99 1.48-0.99 3-2-2.35-2.72-4.62-3.81-8-5 0.49 0.5 0.49 0.5 1 1-0.99 0.5-0.99 0.5-2 1-0.49 0.99-0.49 0.99-1 2-0.49-2.97-0.49-2.97-1-6h-2c-0.49 0.99-0.49 0.99-1 2-1.56-1.12-1.56-1.12-3-3 0.43-5.43 0.43-5.43 2-7l-3-2c1.97-1.97 5.35-1.66 8-2-2.29-1.14-3.59-1.1-6.12-1.06-1.28 0.02-2.56 0.04-3.88 0.06 0-3.3 0.35-5.82 1-9v-3c0.99 0.33 1.98 0.66 3 1l-2-3c0-4 0-4 2-6h-2v-4c-0.49-1.49-0.49-1.49-1-3-2.02-0.73-2.02-0.73-4-1v-4h2v3c1.65-1.75 1.65-1.75 3-4-0.28-2.35-0.94-3.89-2-6v4h-3c-1.25-2.69-1.25-2.69-2-6 2-3.26 3.81-4.87 7-7l-1-10 4-2z" fill="#222324"/>
<path transform="translate(364,1027)" d="m0 0h1c0.15 1.18 0.15 1.18 0.31 2.38 0.47 2.95 0.47 2.95 3.69 4.62-0.33 0.54-0.66 1.07-1 1.62-1.67 3.98-1.34 7.35 0 11.4-0.94 3.19-0.94 3.19-2 6h-2l2 2h3l-1 9-4-2c-0.21 4.49 0.47 7.79 2 12v2l4 2 1-4h3c0.5-0.99 0.5-0.99 1-2h-3c-0.5-1.98-0.5-1.98-1-4 2.61-0.93 3.64-1.15 6.25-0.06 0.87 0.52 0.87 0.52 1.75 1.06l-1 4c0.99-0.33 1.98-0.66 3-1l-1-2 5-1c0.5 1.98 0.5 1.98 1 4l2-1c-0.5-1.98-0.5-1.98-1-4 3.44-2.29 4.72-3 9-3-0.08-0.61-0.17-1.23-0.25-1.86-0.16-1.22-0.16-1.22-0.31-2.45-0.16-1.2-0.16-1.2-0.32-2.43-0.12-2.26-0.12-2.26 0.88-5.26 2.62-1.75 4.04-2.39 7-3 0.5 0.99 0.5 0.99 1 2l-2 1 2 2-3 2-2 2c-0.32 2.99-0.32 2.99 1.44 4.69 3.79 1.94 7.38 1.55 11.6 1.31 0.5-0.99 0.5-0.99 1-2 5.96-0.29 5.96-0.29 8 0l3 3c-0.5-5.44-0.5-5.44-1-11h4v-4l-2-1v-2c3-2 3-2 6-2 1.64 7.21 2.16 13 0.52 20.2-0.9 4.91-0.68 9.84-0.52 14.8l2-1c1.79 0.25 3.57 0.49 5.36 0.75 6.45 0.62 13 0.26 19.5 0.15 1.94-0.03 3.88-0.04 5.82-0.06 1.15-0.02 2.3-0.03 3.48-0.05 2.88 0.21 2.88 0.21 5.88 2.21 0.41 2.71 0.13 5.24 0 8-14.6 0.02-29.1 0.04-43.6 0.05-6.76 0.01-13.5 0.01-20.3 0.03-6.52 0.01-13 0.01-19.6 0.01-2.49 0.01-4.98 0.01-7.47 0.02h-10.4c-1.55 0.01-1.55 0.01-3.14 0.01h-2.87-2.49c-2.12-0.12-2.12-0.12-5.12-1.12-2 0.33-4 0.66-6 1-1.77-0.08-3.55-0.24-5.31-0.44-8.12-0.75-16.2-0.61-24.4-0.52-1.06 0.01-2.12 0.01-3.21 0.02-0.96 0.01-1.92 0.03-2.91 0.04-2.2-0.1-2.2-0.1-3.2-1.1-0.19-2.44-0.19-2.44 0-5 2-2 2-2 5.9-2.23 1.68 0 3.36 0.01 5.05 0.03 1.32 0.01 1.32 0.01 2.68 0.01 2.83 0.01 5.66 0.04 8.49 0.07 1.92 0.01 3.84 0.01 5.76 0.02 4.71 0.02 9.41 0.06 14.1 0.1 0.82-6.99 0.82-6.99 1.28-14 0.04-0.84 0.08-1.68 0.11-2.55 0.08-1.72 0.15-3.44 0.22-5.15 0.21-4.83 0.61-9.52 1.39-14.3l4 2c-0.02-1.11-0.04-2.23-0.06-3.38 0.06-3.62 0.06-3.62 1.06-5.62l-2-1h2v-3.31c0-6.69 0-6.69 1-7.69z" fill="#212223"/>
<path transform="translate(392,945)" d="m0 0c1.5 1.31 1.5 1.31 3 3v3c0.53 1.3 1.1 2.6 1.69 3.88 0.84 2.12 0.84 2.12 1.31 4.12-1.31 2.88-1.31 2.88-3 5v2c2-0.79 2-0.79 4-2l1-3c1.18 0.09 1.18 0.09 2.38 0.19 0.86-0.06 1.73-0.13 2.62-0.19l2-3h2v3c1.09-0.19 2.19-0.37 3.31-0.56 3.69-0.44 3.69-0.44 6.69 0.56 2.32-0.01 4.62-0.13 6.94-0.26 0.68 0.09 1.36 0.17 2.06 0.26l2 3c0.43-0.66 0.87-1.32 1.31-2 0.56-0.66 1.12-1.32 1.69-2h3c0.23 2.05 0.46 4.1 0.68 6.15 0.14 1.86 0.14 1.86 1.32 2.85 0.34 8.5-1.45 16.7-3 25l2-2c-0.21 4.29-0.44 8.57-0.69 12.9-0.08 1.46-0.16 2.91-0.23 4.37-0.1 2.1-0.23 4.2-0.35 6.31-0.1 1.89-0.1 1.89-0.21 3.82-0.58 4.08-1.81 6.91-3.52 10.6-0.26 2.92-0.31 4.39 1 7-0.56 1.95-0.56 1.95-1.44 4.12-0.43 1.09-0.43 1.09-0.87 2.2-0.23 0.55-0.45 1.11-0.69 1.68h-1c-0.17-1.46-0.33-2.92-0.5-4.38-0.14-1.21-0.14-1.21-0.28-2.46-0.22-2.16-0.22-2.16-0.22-4.16-0.12-1.92-0.23-3.84-0.36-5.76-1.18-18.9-1.18-18.9 1.36-27.2l-1-2c-0.43-2.66-0.7-5.32-1-8 0.99-0.33 1.98-0.66 3-1v-3c-2.95-1.16-2.95-1.16-6-1-0.5-2.97-0.5-2.97-1-6l-2 3c-1.5-1.38-1.5-1.38-3-3 0-2 0-2 2-4v-2h-5l2 5c-0.96 0.87-0.96 0.87-1.94 1.75-2.04 2.23-2.96 3.25-3.06 6.25 1.35 1.77 1.35 1.77 3 3l-1 3c-0.62 0.29-1.24 0.58-1.88 0.88-2.8 1.48-3.67 3.36-5.12 6.12l4 2v2h2l-1 3-4-1-2 6h3v7c-1.98 0.5-1.98 0.5-4 1l1 3c-2.48 0.5-2.48 0.5-5 1 0.21 0.76 0.41 1.53 0.62 2.31 0.38 2.69 0.38 2.69-1.62 5.69l-8-3v-4c-1.98-0.66-3.96-1.32-6-2l2-4 4 2c-1.63-3.75-1.63-3.75-4-7-0.07-2.86-0.09-5.7-0.06-8.56 0-1.21 0-1.21 0.01-2.45 0.01-1.99 0.03-3.99 0.05-5.99h-2c-2.51-3.77-2.26-6.77-2.19-11.1v-2.25c0.05-5.49 0.05-5.49 1.19-6.63-0.62-0.45-1.24-0.91-1.88-1.38-2.12-1.62-2.12-1.62-4.12-3.62 0.76-0.41 1.53-0.83 2.31-1.25 2.63-1.71 3.99-3.16 5.69-5.75-0.99-0.33-1.98-0.66-3-1-0.63-4.04-1.12-7.91-1-12h3l-1 3c2.48 0.99 2.48 0.99 5 2 0.93-3.01 1.04-3.87 0-7 0.94-2.69 0.94-2.69 2-5z" fill="#222324"/>
<path transform="translate(1413,923)" d="m0 0c0.87 3 1.12 5.65 1.1 8.77-0.01 0.89-0.01 1.77-0.01 2.69-0.01 0.92-0.02 1.84-0.03 2.79 0 0.94-0.01 1.87-0.01 2.84-0.01 2.3-0.03 4.61-0.05 6.91h1v-2h2c-0.33-0.72-0.66-1.44-1-2.19-1.03-2.9-1.4-4.76-1-7.81 1.5-1.81 1.5-1.81 3-3l-1-3 3-2c1.66 2.67 3 5 4 8-0.99 0.5-0.99 0.5-2 1-0.86 3.17-1.37 5.17-0.02 8.23 1.32 3.58 1.18 6.58 1.08 10.4-0.18 5.29-0.18 5.29 0.94 10.4-0.84 2.51-1.79 4.66-3 7l-1 2h2l-1 3c1.48 0.5 1.48 0.5 3 1v2l3 2v4h-2l-1-2v4c1.48 0.99 1.48 0.99 3 2 0.34 3.85-0.16 7.25-1 11-0.34 2-0.67 4-1 6h-3v5h-1v-5c-1.84-0.77-1.84-0.77-4-1-1.85 1.1-1.85 1.1-3 3v4h-2v2l2 1-1 1c-0.04 2-0.04 4 0 6h-2l1 7c3.05 0.16 3.05 0.16 6-1l-1-6h3l-2-7c1.48-0.99 1.48-0.99 3-2l2 2c-0.38 3.62-0.38 3.62-1 7h2v5h2v-4c3.59 1.33 6.75 2.96 10 5-0.49 1.48-0.49 1.48-1 3 0.99 0.49 0.99 0.49 2 1 0.43 6.2-0.08 8.93-4 14-0.35 0.76-0.7 1.53-1.06 2.31-0.94 1.69-0.94 1.69-3.94 2.69l4 4-1 3c-0.99-0.33-1.98-0.66-3-1l-2 4c-1.98-0.66-3.96-1.32-6-2l-1-5h-2c-0.06 0.58-0.12 1.15-0.19 1.75-1.15 3.2-3.03 4.39-5.81 6.25h-3c-0.34 1.21-0.34 1.21-0.69 2.44-1.31 2.56-1.31 2.56-3.69 3.62-2.62-0.06-2.62-0.06-4.81-1.62-2.02-2.73-2.92-5.18-3.81-8.44 0.54-0.48 1.09-0.97 1.64-1.47 4.87-4.56 7.71-8.03 9.36-14.5l-1-3c0.46-0.75 0.92-1.51 1.4-2.28 1.91-3.25 2.06-5.48 2.22-9.22 0.31-6.16 0.31-6.16 0.89-8.88 0.49-2.62 0.6-4.97 0.59-7.63-0.01-0.98-0.01-1.96-0.01-2.97-0.01-1.06-0.02-2.11-0.03-3.2-0.01-2.3-0.01-4.6-0.02-6.89-0.01-1.21-0.02-2.41-0.02-3.65-0.12-23.8 0.15-47.5 0.98-71.3l2-1z" fill="#272829"/>
<path transform="translate(1224,555)" d="m0 0c-1.41 3.52-2.66 4.39-6 6l-1 3-2 1c-0.66 3.03-0.66 3.03-1 6-1.07 0.12-2.14 0.25-3.25 0.38-3.19 0.53-4.98 1.14-7.75 2.62h-3l-1 2c1.98 0.5 1.98 0.5 4 1l-10 1v2l3 2-4 1-1 4c-5.88-1.88-5.88-1.88-7-3l-1 2c-2 0-2 0-4.12-2-0.62-0.66-1.24-1.32-1.88-2-1.48 0.5-1.48 0.5-3 1v2c-1.48 0.19-2.96 0.38-4.44 0.56-1.23 0.16-1.23 0.16-2.49 0.32-0.69 0.04-1.37 0.08-2.07 0.12l-1-1c-0.66 0.54-1.32 1.07-2 1.62-0.99 0.79-1.98 1.57-3 2.38-0.66 0.54-1.33 1.08-2.01 1.64-1.05 0.83-1.05 0.83-2.11 1.67-0.67 0.53-1.33 1.07-2.01 1.62-0.62 0.35-1.24 0.7-1.87 1.07-3-1-3-1-5-3-0.99 0.5-0.99 0.5-2 1v2h-2c-0.49 0.99-0.49 0.99-1 2v-2h-3c-0.27 0.97-0.54 1.94-0.81 2.94-0.59 1.51-0.59 1.51-1.19 3.06-3.77 1.26-5.37 0.37-9-1l-1 3c-2.81 1.06-2.81 1.06-6 2-0.72 0.37-1.44 0.74-2.19 1.12-1.81 0.88-1.81 0.88-4.81 0.88l-1 3c-0.99 0.5-0.99 0.5-2 1-0.65 2.02-0.65 2.02-1 4-0.96 0.19-0.96 0.19-1.94 0.38-0.68 0.2-1.36 0.41-2.06 0.62l-1 2c-0.91 0.17-0.91 0.17-1.83 0.35-3.02 0.9-3.99 2.53-5.86 5.03-0.6 0.79-1.2 1.58-1.82 2.39-1.64 2.24-1.64 2.24-2.49 5.23-1.33 0.67-2.67 1.33-4 2l-1 3h-3c-0.06 0.62-0.12 1.24-0.19 1.88-0.81 2.12-0.81 2.12-3.37 3.37-0.81 0.25-1.61 0.5-2.44 0.75 0.44-4.82 1.34-6.86 5-10 2.88-2.66 2.88-2.66 4.91-5.94 1.2-2.28 2.4-3.4 4.4-5 2.11-1.73 4.07-3.44 6-5.37 7.88-7.88 16.1-15 25.7-20.7 0.45-0.47 0.91-0.95 1.38-1.44 1.95-1.87 4.13-3.04 6.51-4.3 1.89-1.13 3.6-2.34 5.37-3.65 3.59-2.59 7.32-4.57 11.3-6.49 1.41-0.68 2.82-1.37 4.23-2.06 0.7-0.34 1.4-0.68 2.13-1.03 1.99-0.98 3.95-2 5.92-3.03 6.36-3.33 12.1-5.68 19.2-7l1-2c2.14-0.76 4.31-1.44 6.5-2.06 4.06-0.88 4.06-0.88 7.5-2.94 1.85-0.23 3.7-0.41 5.56-0.56 1.01-0.09 2.03-0.17 3.07-0.26 1.17-0.09 1.17-0.09 2.37-0.18v-3c6.21-0.73 11.8-1.23 18 0z" fill="#272829"/>
<path transform="translate(1457,577)" d="m0 0c2.38 3.7 2.27 7.28 2.23 11.5v2.28c0 2.48-0.02 4.96-0.03 7.43-0.01 1.73-0.01 3.45-0.01 5.17-0.01 4.52-0.03 9.04-0.05 13.6-0.02 4.62-0.03 9.24-0.04 13.8-0.02 9.06-0.06 18.1-0.1 27.2-2.71 1.36-5.07 1.24-8.04 0.82-2.62-1.09-3.11-2.19-4.27-4.76-0.61-1.67-1.17-3.36-1.69-5.06-0.3-0.9-0.6-1.79-0.9-2.71-2.1-6.59-2.1-6.59-2.1-10.3h-2c-0.22-0.62-0.44-1.23-0.66-1.87-2.12-5.66-4.63-10.4-8.17-15.3-1.17-1.81-1.17-1.81-1.17-3.81h-2c-1.29-1.75-1.29-1.75-2.62-4-0.45-0.74-0.9-1.49-1.36-2.25-0.33-0.58-0.67-1.15-1.02-1.75l2-1v-6h3l2 4-2 1c-0.66 2.53-0.66 2.53-1 5 3.07-0.78 3.07-0.78 5-3 1.12 3.75 1.12 3.75 0 6 2.47-0.5 2.47-0.5 5-1 0.12-0.64 0.25-1.28 0.38-1.94 0.2-0.68 0.41-1.36 0.62-2.06l2-1c-0.55-0.29-1.11-0.58-1.68-0.88-5.99-3.39-5.99-3.39-7.82-7.43-0.16-0.89-0.33-1.78-0.5-2.69 0.99-0.33 1.98-0.66 3-1l1 4h2l1-6h3l1-5 3 2-1 2 4-2-1-4 2-1v2h5c0.1-1.09 0.21-2.19 0.31-3.31 0.66-3.55 0.89-4.62 3.69-6.69z" fill="#272829"/>
<path transform="translate(196 546)" d="m0 0c3.72-0.01 7.45-0.03 11.2-0.06 2.91-0.02 5.82-0.02 8.74-0.02 1.37-0.01 2.75-0.01 4.13-0.03 1.89-0.01 3.79-0.01 5.68-0.01 1.07 0 2.15 0 3.25-0.01 2.98 0.41 3.86 1.02 5.66 3.37l-2 2c0.34 2.02 0.34 2.02 1 4v2h-43c0.49 0.99 0.49 0.99 1 2 0.1 2.61 0.13 5.19 0.12 7.79 0.01 0.82 0.01 1.63 0.01 2.47v8.24 5.89c0.01 5.35 0.01 10.7 0 16v16.8c0.01 9.45 0 18.9 0 28.4-0.01 10.9-0.01 21.7 0 32.6 0 9.36 0.01 18.7 0 28.1v16.7c0.01 5.27 0.01 10.5 0 15.8v5.74c0.02 13.8-0.43 27.6-1.13 41.4l-2-1c-0.13-7.62-0.13-7.62 1-11h-2v-6h1v-205l-2-1-2 1v3c-2.48-1.98-2.48-1.98-5-4v5c-2.33 0.68-4.66 1.35-7 2-0.89 0.25-1.78 0.5-2.69 0.75-2.82 0.31-3.83-0.47-6.31-1.75-3.17-0.17-3.17-0.17-6 0l-1-2c-3.03-0.66-3.03-0.66-6-1l1-2c2.33-0.38 2.33-0.38 5.25-0.56 3.67-0.25 7.15-0.65 10.8-1.44-0.5-1.48-0.5-1.48-1-3h-9l-2-4c3.42-1.14 6.08-1.1 9.69-1.06 1.76 0.01 1.76 0.01 3.57 0.03 0.9 0.01 1.81 0.02 2.74 0.03v-2h-5v-1l-32-1v-1c20.5-0.78 40.9-1.21 61.4-1.24zm26.6 9.24v1h7v-1h-7z" fill="#272829"/>
<path transform="translate(716,698)" d="m0 0c2.86-0.24 5.19-0.43 8 0 2.75 2.38 2.75 2.38 5 5 2.34 1.38 4.41 2.14 7 3 0.95 2.07 0.95 2.07 1.69 4.56 0.25 0.83 0.5 1.66 0.76 2.51 0.18 0.63 0.36 1.27 0.55 1.93l5 1c1.01 2.89 1.94 5.67 2.5 8.69 0.41 2.57 0.41 2.57 2.5 5.31-0.52 0.41-1.03 0.83-1.56 1.25-0.48 0.58-0.95 1.15-1.44 1.75 0.23 2.16 0.23 2.16 1 4l4-4c1.56 2.31 1.56 2.31 3 5l-1 3c1.98 0.66 3.96 1.32 6 2l-1 4-3-2c-1.33 3-1.33 3 0 6l3 2c0.7 1.65 1.36 3.32 2 5 0.95 1.37 1.95 2.7 3 4 0.5 0.72 0.99 1.44 1.5 2.19 1.46 2.09 1.46 2.09 4.5 2.81l1 6-3 2c0.99 1.32 1.98 2.64 3 4-3 2-3 2-5 2-0.39 0.52-0.78 1.03-1.19 1.56-1.81 1.44-1.81 1.44-5.31 1.25-3.5-0.81-3.5-0.81-6.5-2.81 2.97-0.5 2.97-0.5 6-1-2.33-1.21-4.5-2.17-7-3-0.67-2-1.33-4-2-6-0.62-0.58-1.24-1.15-1.88-1.75-3.31-3.5-4.54-7.75-6.12-12.2-0.25-0.68-0.51-1.36-0.77-2.07-0.96-2.86-1.39-4.48-0.35-7.37 0.37-0.51 0.74-1.03 1.12-1.56l-6-3 2-4c-4.4-4.16-4.4-4.16-10-6-0.08-0.72-0.16-1.44-0.25-2.19-0.59-2.98-0.59-2.98-2.87-5.43-0.93-1.18-0.93-1.18-1.88-2.38l1-3c0.04-2.33 0.04-4.67 0-7v-8c-2.97-0.5-2.97-0.5-6-1l-1-6z" fill="#222324"/>
<path transform="translate(117,861)" d="m0 0c3.31 5.51 3.13 11.8 3 18l4-2c-0.56-1.14-0.56-1.14-1.12-2.31-0.29-0.89-0.58-1.78-0.88-2.69l2-3 1-2 2-3c2.12 6.75 2.12 6.75 1 9 0.33 0.76 0.66 1.53 1 2.31 1 2.69 1 2.69 0.5 5.13-0.65 3.35 0.31 5.41 1.5 8.56v2l3-2c0.51 1.25 1.01 2.5 1.5 3.75 0.28 0.7 0.56 1.39 0.84 2.11 0.66 2.14 0.66 2.14 0.66 6.14h-2l-1 8c-2.09-3.79-2.01-6.29-1.94-10.6 0.33-3.22 0.33-3.22-1.06-4.38l-2 2c-2.03-1.42-2.9-2.55-3.42-4.98-0.24-2-0.42-4.01-0.58-6.02l-1 5c-3-3.75-3-3.75-3-6h-2c-0.02 13.2-0.04 26.5-0.05 39.7-0.01 6.14-0.01 12.3-0.03 18.4-0.01 5.93-0.01 11.8-0.01 17.8-0.01 2.26-0.01 4.52-0.02 6.79v9.49c-0.01 0.94-0.01 1.88-0.01 2.85v2.62 2.26c0.05 2.11 0.05 2.11 0.69 4.14 0.7 3.16-0.67 5.9-1.57 8.95 0.86 2.26 0.86 2.26 3.5 3.12 4.26 1.07 8.14 1.05 12.5 0.88v2c-0.99 0.33-1.98 0.66-3 1 0.5 1.98 0.5 1.98 1 4h-2c-1.33 3-1.33 3 0 6-2.08 0.55-3.84 1-6 1v2h2c0.1 0.64 0.21 1.28 0.31 1.94 0.23 0.68 0.46 1.36 0.69 2.06 0.99 0.33 1.98 0.66 3 1-0.16 0.6-0.33 1.2-0.5 1.81-0.61 2.3-0.61 2.3-0.5 5.19-1.74 6.74-1.74 6.74-3 8 0.12 1.4 0.3 2.8 0.5 4.19 0.48 3.83 0.35 7.01-0.5 10.8 0 2.19 0.3 4.39 0.5 6.56 0.41 4.84 0.59 9.58 0.5 14.4-1.5-1.31-1.5-1.31-3-3v-3l-2-1v-4h3c-0.29-0.53-0.58-1.06-0.88-1.61-0.37-0.71-0.74-1.41-1.12-2.14-0.37-0.7-0.74-1.39-1.12-2.11-0.88-2.14-0.88-2.14-0.88-6.14-1.07 3.2-1.07 5.66-1 9l-2-1c-0.6-3.32-0.74-6.63-1-10v20l-1-2h-2c-0.02-8.08-0.04-16.2-0.05-24.2-0.01-3.75-0.01-7.51-0.03-11.3-0.05-17.3 0.11-34.6 0.62-51.9 0.42-14.1 0.62-28.3 0.74-42.4 0.01-1.06 0.02-2.12 0.03-3.21 0.09-9.8 0.17-19.6 0.24-29.4 0.04-5.44 0.09-10.9 0.14-16.3 0.03-3.04 0.05-6.08 0.07-9.12 0.02-1.83 0.03-3.67 0.05-5.51 0-0.83 0.01-1.67 0.01-2.53 0.04-3.29 0.13-5.97 1.18-9.11z" fill="#272829"/>
<path transform="translate(660 1e3)" d="m0 0c0.29 0.62 0.58 1.24 0.88 1.88 1.06 2.25 1.06 2.25 3.12 4.12 0.56-0.54 1.11-1.07 1.69-1.62 0.76-0.46 1.52-0.91 2.31-1.38 3.14 0.82 4.7 1.7 7 4l1-2h3v4l2 1c-0.87 1.67-0.87 1.67-1.75 3.38-1.47 2.93-2.77 5.86-3.94 8.93-2.35 6.03-5.16 11.8-7.96 17.6-2.55 5.31-4.99 10.6-7.35 16-3.54 8.06-7.26 16-11 24h-2l-2 9h-2v-2h-2c-1.32-3.62-2-6.1-2-10h-2c-0.5-2.97-0.5-2.97-1-6h5c1.07-2.3 2.06-4.64 3-7l-1-2 3-2c0.16-0.66 0.33-1.32 0.5-2 0.5-2 0.5-2 3.5-4 1.04-1.64 2.04-3.31 3-5 0.98-1.35 1.98-2.68 3-4l2 1 1-3c0.99-0.49 0.99-0.49 2-1 0.34-1.66 0.67-3.33 1-5 0.52-1.24 1.06-2.47 1.62-3.69 0.46-1.09 0.91-2.18 1.38-3.31l-1-2c0.99-0.33 1.98-0.66 3-1-0.99-0.62-1.98-1.24-3-1.88-0.99-0.7-1.98-1.4-3-2.12v-2c2.17 0.51 4 1 6 2l1-3 2-1-5-2-1 3c-1.48-0.25-2.96-0.53-4.44-0.81-0.82-0.15-1.64-0.3-2.49-0.46-0.69-0.24-1.37-0.48-2.07-0.73l-1-3h-2c-0.69-1.75-0.69-1.75-1-4 1.44-2.25 1.44-2.25 3-4l-1-2h2v-4l5-1z" fill="#222324"/>
<path transform="translate(528,519)" d="m0 0 1 2h2c0.73 1.4 0.73 1.4 1.47 2.82 3.98 7.6 8.16 15 12.7 22.2 1.98 3.2 3.83 6.44 5.62 9.74 1.31 2.4 2.67 4.78 4.03 7.15 1.32 2.31 2.63 4.62 3.94 6.94 1.01 1.79 2.03 3.57 3.04 5.36 0.53 0.93 1.06 1.86 1.6 2.82 2.79 4.9 5.67 9.65 8.84 14.3 2.73 4.16 3.59 6.69 2.75 11.6l-1 2 4 2c-0.99 1.32-1.98 2.64-3 4l2 2c-0.16 0.64-0.33 1.28-0.5 1.94-0.16 0.68-0.33 1.36-0.5 2.06 0.99 1.49 0.99 1.49 2 3l-2 4c-0.99-0.5-0.99-0.5-2-1v-3c-0.99-0.5-0.99-0.5-2-1h2v-2l-5-1v-2c-0.99-0.5-0.99-0.5-2-1-0.99 0.5-0.99 0.5-2 1-0.17-0.53-0.34-1.07-0.52-1.62-2.57-7.9-5.7-15.5-8.92-23.2-1.76-4.21-3.44-8.43-5.06-12.7-2.37-6.22-4.91-12.4-7.5-18.5-8-19-8-19-8-23h-2c-1.03-2.27-2.05-4.54-3.06-6.81-0.44-0.97-0.44-0.97-0.9-1.95-2.15-4.9-2.15-4.9-1.04-8.24z" fill="#272829"/>
<path transform="translate(623,510)" d="m0 0c3.24 2.16 3.71 3.07 5.25 6.5 3.04 6.35 7.04 11.8 11.2 17.5 1.89 2.59 3.58 5.08 4.99 7.97 2.07 4.06 4.79 7.46 7.56 11.1 2.55 3.42 4.95 6.82 7 10.6 1.9 3.49 1.9 3.49 4.5 6.44 2.25 2.7 3.88 5.21 5.51 8.29 1.09 1.99 1.09 1.99 3.37 4.59 2.1 4.04 1.41 6.11 0.2 10.4-0.29 0.87-0.29 0.87-0.58 1.76-3.72 1.14-5.47 0.67-9-1l-1 2c-1.56-2.81-1.56-2.81-3-6 1-3 1-3 2-4-0.41-2.05-0.41-2.05-1-4-2.05 1.84-2.05 1.84-3 4h-3c-0.58-1.46-1.17-2.92-1.75-4.38-0.37-0.92-0.74-1.84-1.12-2.78-0.69-1.75-1.39-3.49-2.08-5.24-2.39-6.07-4.95-12.1-7.53-18-1.85-4.33-3.65-8.67-5.44-13-0.65-1.51-1.33-3.01-2.07-4.48-1.78-3.6-3.19-7.35-4.69-11.1-1.25-2.82-2.73-5.33-4.32-7.97-2-6.21-2-6.21-2-9z" fill="#272829"/>
<path transform="translate(550,805)" d="m0 0 1 2h2l1 7c0.99 0.33 1.98 0.66 3 1l1 2 2-1v4c0.64 0.21 1.28 0.41 1.94 0.62 2.06 1.38 2.06 1.38 2.75 4.44 0.1 0.97 0.2 1.94 0.31 2.94 1.11 1.21 1.11 1.21 3.38 2.25 2.95 1.97 4.17 3.53 5.62 6.75-1 3-1 3-3 4-0.66 2.53-0.66 2.53-1 5l5 1-2 2c0.64 0.54 1.28 1.07 1.94 1.62 2.49 2.88 2.82 4.62 3.06 8.38-0.44 2.38-0.44 2.38-1 4l3-3c3 1 3 1 5 3 0.12 2.62 0.12 2.62 0 5h-7l-1-4-1 2c-4.62-1.78-7.69-3.2-11-7-1.93-2.22-1.93-2.22-5-3-0.2-3.63 0.14-5.87 2-9l-4-2c0.28-1.18 0.28-1.18 0.56-2.38 0.7-2.59 0.7-2.59-0.56-4.62h-2c-2.19-2.31-2.19-2.31-4-5 0.83-2.5 1.79-4.67 3-7l-5-3c0.16-0.91 0.33-1.82 0.5-2.75 0.6-3.88 0.71-6.64-0.56-10.4-0.94-2.88-0.94-2.88 0.06-4.88z" fill="#222324"/>
<path transform="translate(445,836)" d="m0 0h2c0.33 2 0.67 4 1 6 0.17 0.95 0.35 1.89 0.52 2.87 1.96 12.8-0.29 26.3-1.52 39.1-0.18 1.95-0.36 3.91-0.54 5.86-0.18 1.82-0.35 3.63-0.52 5.45-0.08 0.85-0.16 1.7-0.24 2.57-0.58 5.89-0.58 5.89-1.7 8.12l-5-1c0.16 0.55 0.33 1.1 0.5 1.67 0.56 2.6 0.6 4.93 0.56 7.58-0.01 0.89-0.02 1.78-0.02 2.7-0.02 1.02-0.02 1.02-0.04 2.05h-3c-1.65-1.65-1.4-3.68-1.62-5.94-0.1-0.89-0.2-1.79-0.29-2.71-0.09-2.35-0.09-2.35 0.91-4.35-0.11-1.4-0.29-2.8-0.5-4.19-0.52-4.15-0.28-7.68 0.5-11.8 0.14-1.07 0.29-2.14 0.44-3.25 0.56-2.75 0.56-2.75 2.56-5.75v-2c-0.99-0.33-1.98-0.66-3-1v-5h2c0.38-1.99 0.71-3.99 1-6l-1-1c-0.07-1.85-0.08-3.71-0.06-5.56 0.01-1.01 0.02-2.03 0.02-3.07 0.02-0.78 0.03-1.56 0.04-2.37l-2-1v-6c4.75-1 4.75-1 7-1-0.06-1.61-0.06-1.61-0.12-3.25 0.11-3.41 0.33-4.96 2.12-7.75z" fill="#222324"/>
<path transform="translate(1456,609)" d="m0 0h1c0.06 1.05 0.12 2.1 0.18 3.18 0.09 1.42 0.17 2.84 0.26 4.26 0.04 0.69 0.08 1.37 0.12 2.08 0.21 3.6 0.51 7.15 0.97 10.7 0.67 5.76 0.58 11.5 0.53 17.3 0 1.11-0.01 2.21-0.01 3.35-0.01 2.7-0.03 5.39-0.05 8.09-2.71 1.36-5.07 1.24-8.04 0.82-2.62-1.09-3.11-2.19-4.27-4.76-0.61-1.67-1.17-3.36-1.69-5.06-0.3-0.9-0.6-1.79-0.9-2.71-2.1-6.59-2.1-6.59-2.1-10.3h-2c-2.7-6.41-4.57-11-3-18-0.35-2.32-0.35-2.32-1-4 2.47 0.5 2.47 0.5 5 1v11l3-2 3 2 1-3c2 0.67 4 1.33 6 2l1 3c-0.01-1.29-0.02-2.58-0.04-3.9 0-1.68-0.01-3.36-0.02-5.04-0.01-0.85-0.02-1.7-0.03-2.57 0-1.22 0-1.22-0.01-2.45-0.01-1.13-0.01-1.13-0.01-2.27 0.11-1.77 0.11-1.77 1.11-2.77z" fill="#222324"/>
<path transform="translate(73,553)" d="m0 0h2v2h49v2h-6c0.5 0.99 0.5 0.99 1 2h6l-1 6h4v-2l2 1-1 3h-4l-1 7c-2-1-2-1-4-3 0.01 1.16 0.01 2.32 0.02 3.51 0.01 4.38 0.03 8.75 0.03 13.1l0.03 5.64c0.04 8.91 0.06 17.8-0.58 26.7-0.72 10-0.57 20-0.5 30 0.03 3.79 0.05 7.58 0.06 11.4 0.01 0.84 0.02 1.69 0.03 2.57 0.02 5.11-0.35 9.99-1.09 15h-1c-0.78-7.42-1.16-14.8-1.19-22.2-0.01-1.06-0.02-2.12-0.02-3.21-0.02-2.28-0.04-4.56-0.05-6.84-0.02-3.6-0.05-7.21-0.08-10.8-0.07-8.94-0.13-17.9-0.19-26.8-0.05-7.58-0.1-15.2-0.16-22.8-0.03-3.55-0.05-7.11-0.07-10.7-0.02-2.17-0.03-4.34-0.05-6.51 0-0.99-0.01-1.98-0.01-3-0.01-0.91-0.02-1.81-0.03-2.75-0.01-1.18-0.01-1.18-0.01-2.38-0.07-2.24-0.07-2.24-1.14-5.04-0.99 0.33-1.98 0.66-3 1-2.88 0.09-5.73 0.12-8.61 0.1-0.83 0-1.67-0.01-2.54-0.01-2.68 0-5.36-0.01-8.04-0.03-1.81 0-3.63-0.01-5.45-0.01-4.45-0.01-8.91-0.03-13.4-0.05l-1-3 1-1z" fill="#272829"/>
<path transform="translate(702,861)" d="m0 0c1.94 0.38 1.94 0.38 4 1l1 2c0.76 0.43 1.53 0.87 2.31 1.31 3.01 1.89 4.71 3.75 6.69 6.69v3c0.62 0.04 1.24 0.08 1.88 0.12 2.12 0.88 2.12 0.88 3.5 3.69 0.7 3.59 0.29 4.14-1.38 7.19 0.3 2.69 0.3 2.69 1 5-0.99 0.33-1.98 0.66-3 1l-2 2c-2.8-2.07-3.03-3.14-3.69-6.69-0.1-1.09-0.2-2.18-0.31-3.31-0.99 0.33-1.98 0.66-3 1v3c-3.72 0.2-4.77 0.15-8-2l-1 2-1-3-3-2c-0.12-2.5-0.12-2.5 0-5l-1-2c0.19-0.95 0.37-1.9 0.56-2.88 0.47-3.3 0.22-4.39-1.56-7.12l3-2v2h7l-2-2v-3z" fill="#222324"/>
<path transform="translate(175,1043)" d="m0 0h5c-0.02 1.13-0.04 2.27-0.06 3.44 0 4.57 0.48 9.03 1.06 13.6 0.1 0.77 0.19 1.55 0.29 2.35 0.23 1.88 0.47 3.77 0.71 5.65h-2l-1 5c-0.99-0.33-1.98-0.66-3-1-0.62 0.66-1.24 1.32-1.88 2-2.12 2-2.12 2-4.12 2v-2h-6c-4.53-7.22-4.53-7.22-4-12v-3c-0.99-0.33-1.98-0.66-3-1v-4c2.98 0.39 2.98 0.39 5.96 0.78 2.19 0.27 2.19 0.27 5.04 0.22l1-4c-2.97-0.49-2.97-0.49-6-1l1-3c5.75-1.12 5.75-1.12 8 0v4l5-1-4-1c0.33-0.62 0.66-1.24 1-1.88 1.14-2.03 1.14-2.03 1-4.12z" fill="#272829"/>
<path transform="translate(185,546)" d="m0 0c6.64-0.08 13.3-0.13 19.9-0.16 2.25-0.02 4.51-0.04 6.77-0.07 3.25-0.03 6.49-0.05 9.74-0.06 1.01-0.02 2.02-0.03 3.06-0.05h2.85c0.83-0.01 1.66-0.01 2.51-0.02 2.62 0.44 3.5 1.34 5.15 3.36l-2 2c0.34 2.02 0.34 2.02 1 4v2h-40v-2c-1.18 0.09-1.18 0.09-2.38 0.19-1.29-0.1-1.29-0.1-2.62-0.19-4-6-4-6-4-9zm38 9v1h7v-1h-7z" fill="#202123"/>
<path transform="translate(1076,915)" d="m0 0c0.74 0.76 1.48 1.53 2.25 2.31 2.56 2.65 2.56 2.65 5.06 4.31 0.56 0.46 1.12 0.91 1.69 1.38v3h4l1 3-2 2c-2.73-0.03-5.3-0.56-8-1-0.5 2.83-0.5 2.83 0 6 2.89 2.42 2.89 2.42 6 4l-2 2c-1.14-0.46-1.14-0.46-2.31-0.94-1.88-0.74-3.78-1.42-5.69-2.06l-1-3-2-1c-0.1 0.76-0.21 1.53-0.31 2.31-0.75 2.91-1.17 4.07-3.69 5.69-2.69-0.31-2.69-0.31-5-1 0.57-2.87 0.86-3.86 3-6l-1-3 1-2-7-2 4-10c0.99 0.33 1.98 0.66 3 1l1-3c1.14 0.34 1.14 0.34 2.31 0.69 0.89 0.1 1.78 0.2 2.69 0.31 1.84-1.33 1.84-1.33 3-3z" fill="#222324"/>
<path transform="translate(883,1023)" d="m0 0 7 5 4-3 1 4c-3.47 1.48-3.47 1.48-7 3 0.27 1.98 0.27 1.98 1 4 0.99 0.33 1.98 0.66 3 1 0.73 1.93 0.73 1.93 1.19 4.31 0.16 0.78 0.31 1.56 0.48 2.37 0.33 2.32 0.33 2.32 0.33 6.32-2.49 0.69-4.38 1-7 1l1 9-5-1c-0.29-0.91-0.58-1.82-0.88-2.75-0.95-3.14-0.95-3.14-2.37-5.31-0.75-1.94-0.75-1.94-0.13-4.63 1.38-2.31 1.38-2.31 3.5-3.12 0.62-0.06 1.24-0.13 1.88-0.19l-1-2c-0.99-0.33-1.98-0.66-3-1l-1-3c-1.5-1.67-1.5-1.67-3-3 2.75-5.88 2.75-5.88 5-7v-3l1-1z" fill="#272829"/>
<path transform="translate(1101,1010)" d="m0 0c2.88 0.25 2.88 0.25 6 1 1.25 2 1.25 2 2 4l2 1v2c3.34-0.56 6.03-1.35 9-3l-1 7 2 1c-3.05 0.98-4.95 0.98-8 0-0.12 0.64-0.25 1.28-0.38 1.94-0.3 1.02-0.3 1.02-0.62 2.06l-2 1 2 1 1 3c0.66 0.31 1.32 0.62 2 0.94 2 1.06 2 1.06 2.75 3.18 0.12 0.93 0.12 0.93 0.25 1.88l8 1 2 5c1.92 0.19 1.92 0.19 3.88 0.38 3.87 0.37 3.87 0.37 6.12 2.62 1.3 0.96 1.3 0.96 2.62 1.94 0.79 0.68 1.57 1.36 2.38 2.06v3c-4.18-0.66-7.52-2.9-11.1-5.06-0.67-0.41-1.33-0.81-2.01-1.22-8.28-5.08-16-10.7-23.2-17.2-3.41-3.05-7.04-5.81-10.7-8.53l1-4h3l1 2h2l1 5 1-2h2v-3l-3-2 1-3-1-3c-0.99-0.33-1.98-0.66-3-1v-1z" fill="#272829"/>
<path transform="translate(1502,808)" d="m0 0c4.48-0.03 8.96-0.05 13.4-0.06 1.28-0.01 2.56-0.02 3.87-0.03 1.83 0 1.83 0 3.69-0.01 1.12 0 2.25-0.01 3.41-0.01 2.59 0.11 2.59 0.11 3.59 1.11 0.13 1.81 0.13 1.81 0.12 4 0.01 1.08 0.01 1.08 0.01 2.19-0.13 1.81-0.13 1.81-1.13 2.81-2.38 0.09-4.72 0.12-7.1 0.1-1.06 0-1.06 0-2.15-0.01-2.27 0-4.54-0.01-6.81-0.03-1.54 0-3.08-0.01-4.61-0.01-3.78-0.01-7.55-0.03-11.3-0.05l2-2c-0.32-2.11-0.32-2.11-1-4l5-2-1-2z" fill="#060708"/>
<path transform="translate(584,873)" d="m0 0h5l1 2c-0.99 0.5-0.99 0.5-2 1 3.91 1.47 3.91 1.47 8 2l1-4 1 2 2 1h-2v2h5v3c-0.74-0.16-1.49-0.33-2.25-0.5-2.94-0.62-2.94-0.62-6.75-0.5l-1 2 2 1h-2l1 2c0.99-0.33 1.98-0.66 3-1v2l4 2v5h2v3c-2.31-0.33-4.62-0.66-7-1l1-3c-0.99-0.33-1.98-0.66-3-1l-2 1-2-1c-0.73-2.31-1.4-4.65-2-7l-1 3-2-1 1-2h-3v3h-7c0-3.38 0.87-5.83 2-9h2l-1-3h5v-3z" fill="#222324"/>
<path transform="translate(890,655)" d="m0 0 6 5 1-2h3c0 21 0 21-1 24v-2c-1.98-0.33-3.96-0.66-6-1-0.6-2.76-1-5.16-1-8-0.09-2.09-0.09-2.09-1-4-1.99-1.74-1.99-1.74-5-2-3.15 1.05-6.06 2.45-9 4-1.76-3.09-2-4.23-2-8l-2-1 5-3c2 2 2 2 3 4 2.48 0.83 4.35 1 7 1 1.16-2.95 1.16-2.95 1-6l1-1z" fill="#222324"/>
<path transform="translate(865 1e3)" d="m0 0c1.98 0.5 1.98 0.5 4 1l1 4c-0.99 0.5-0.99 0.5-2 1 0.83 2.17 0.83 2.17 3 3l2 1 1-5c2.94 1.12 2.94 1.12 6 3 1.31 4.02 0.88 6.95 0 11l1 3h-3c-0.29-0.64-0.58-1.28-0.88-1.94-0.95-2.21-0.95-2.21-3.12-3.06l1 9h-3c-0.99 0.33-1.98 0.66-3 1-3.88-3.41-4.36-7.01-5-12-0.52-10.4-0.52-10.4 1-15z" fill="#272829"/>
<path transform="translate(141,657)" d="m0 0c3.01 3.01 2.6 5.82 3 10 0.99 0.33 1.98 0.66 3 1v3h-2c0.06 1.22 0.12 2.43 0.19 3.69 0 3.87-0.62 6.27-3.19 9.31h-3l-1-4h-3v3h-2v-3l-2-1h2c-0.08-0.63-0.17-1.26-0.25-1.91-0.67-5.62-0.68-10.5 0.25-16.1l4 2 1-3h3v-3z" fill="#272829"/>
<path transform="translate(190,931)" d="m0 0h1c0.96 20 1.16 40 1.13 60-0.01 4.13 0 8.27 0 12.4 0.03 22.2-0.36 44.4-1.13 66.6h-1l-1-11h-3v-3l4 1v-126z" fill="#28292A"/>
<path transform="translate(1410,817)" d="m0 0c6.62-0.25 6.62-0.25 10 2l-1 2h-2l-1-1c-0.84 7.08-1.15 14-1.13 21.2 0 1.03 0 2.06-0.01 3.12 0 2.16 0.01 4.33 0.01 6.49 0 3.29 0 6.58-0.01 9.86 0 2.12 0.01 4.23 0.01 6.34 0 0.97-0.01 1.95-0.01 2.95 0.02 5.11 0.26 10.1 0.92 15.2 0.3 2.65 0.29 5.27 0.22 7.93-1.48 0.5-1.48 0.5-3 1-2.26-8.1-2.24-15.9-2.16-24.2 0.01-1.46 0.01-2.92 0.02-4.38 0.01-3.82 0.03-7.65 0.06-11.5 0.04-6.14 0.07-12.3 0.1-18.4 0.01-2.14 0.02-4.28 0.04-6.42 0.01-1.29 0.02-2.59 0.02-3.92 0.01-1.14 0.02-2.28 0.03-3.45 0.08-2.66 0.08-2.66-1.11-4.69z" fill="#262728"/>
<path transform="translate(653,570)" d="m0 0c4.64 1.46 4.64 1.46 6.31 3.94 0.69 2.06 0.69 2.06 0.69 5.06 0.62 0.25 1.24 0.5 1.88 0.75 2.47 1.46 3.07 2.63 4.12 5.25h2l1 3 3 2c0.19 2.62 0.19 2.62 0 5-2.79 1.03-3.87 1.05-6.75 0.06-1.11-0.52-1.11-0.52-2.25-1.06l-1 2c-1.56-2.81-1.56-2.81-3-6 1-3 1-3 2-4-0.41-2.05-0.41-2.05-1-4-2.05 1.84-2.05 1.84-3 4h-3c-0.53-1.24-1.05-2.5-1.56-3.75-0.29-0.7-0.58-1.39-0.88-2.11-0.65-2.48-0.36-3.74 0.44-6.14 0.19-0.74 0.37-1.49 0.56-2.25 0.15-0.58 0.29-1.15 0.44-1.75z" fill="#222324"/>
<path transform="translate(890,550)" d="m0 0h2c0.02 4.08 0.04 8.15 0.05 12.2 0.01 1.38 0.02 2.77 0.03 4.15 0.01 2 0.01 3.99 0.02 5.98 0 1.2 0.01 2.4 0.01 3.64-0.11 3-0.11 3-1.11 6h-2l-2-6-2 1-2-6h-2c5.81-17.8 5.81-17.8 9-21z" fill="#222324"/>
<path transform="translate(402 744)" d="m0 0c1.13 0.02 2.27 0.04 3.44 0.06 0 3 0 3-0.69 4.88-0.46 3.1 0.95 4.62 2.69 7.12l-2 2c0.16 0.62 0.33 1.24 0.5 1.88 0.5 2.12 0.5 2.12-0.25 4.31-1.25 1.81-1.25 1.81-4.25 2.81-1.23 3.01-1.23 3.01-2 6h-3c0-15.6 0-15.6 0.44-21.6 0.08-1.17 0.16-2.34 0.24-3.54 0.47-4.19 0.52-3.82 4.88-3.9z" fill="#272829"/>
<path transform="translate(1434,910)" d="m0 0 4 1 1 4c-0.66 0.43-1.32 0.87-2 1.31-0.66 0.56-1.32 1.12-2 1.69v3h-3v2l2 1 1 3c-0.71 0.56-0.71 0.56-1.44 1.12-2.19 2.64-2.31 4.46-2.56 7.88 0.21 2.28 0.51 4.54 0.81 6.81 0.25 2.85-0.17 5.41-0.81 8.19h-3v-20l-4-1v-6l5-1c-0.19-1.07-0.37-2.14-0.56-3.25-0.37-3.15-0.48-4.85 0.56-7.75l4 1 1-3z" fill="#272829"/>
<path transform="translate(571 597)" d="m0 0c0.72 0.29 1.43 0.57 2.17 0.87 0.54 0.23 1.08 0.46 1.64 0.69l-1 7 4 2c-0.99 1.32-1.98 2.64-3 4l2 2c-0.16 0.64-0.33 1.28-0.5 1.94-0.16 0.68-0.33 1.36-0.5 2.06l2 3-2 4-2-1v-3l-2-1h2v-2l-5-1v-2l-2-1 1-7h-3c0.02-0.72 0.04-1.44 0.07-2.18-0.07-2.74-0.46-5.16-1.07-7.82 3.41-1.13 4.01-0.86 7.19 0.44z" fill="#222324"/>
<path transform="translate(448,849)" d="m0 0h1c0.71 18.3-2.13 36.8-4 55-2.56-3.85-3.12-5.19-2.44-9.81 0.58-3.96-0.24-6.4-1.56-10.2-0.18-3.01-0.1-5.99 0-9v-3c0.3-2.34 0.64-4.67 1-7 0.1-0.93 0.21-1.86 0.31-2.81 0.23-0.72 0.46-1.45 0.69-2.19 0.66-0.28 1.32-0.56 2-0.85 2.22-0.97 2.22-0.97 2.61-3.31 0.05-0.82 0.09-1.63 0.14-2.46 0.06-0.82 0.11-1.64 0.17-2.48 0.03-0.63 0.05-1.25 0.08-1.9z" fill="#28292A"/>
<path transform="translate(708,668)" d="m0 0c4.67 1.64 4.67 1.64 6.5 3.62 1.49 1.66 1.49 1.66 4.19 1.57 0.76-0.06 1.52-0.13 2.31-0.19v3c0.15 1.44 0.32 2.88 0.5 4.31 0.42 3.59 0.59 7.08 0.5 10.7l-5-1-2 3c-0.99-0.33-1.98-0.66-3-1l1-4-3-2c-1.19-3.12-1.19-3.12-2-6l5-1 1 6v-3c0.06-1.01 0.12-2.02 0.19-3.06-0.1-1.46-0.1-1.46-0.19-2.94l-3-2c-3-3.56-3-3.56-3-6z" fill="#222324"/>
<path transform="translate(1419,576)" d="m0 0c0.62 0.33 1.24 0.66 1.88 1 2.03 1.14 2.03 1.14 4.12 1l1-2 5 1c1.25 6.62 1.25 6.62-1 10-2.97-0.5-2.97-0.5-6-1v3c-0.99 0.33-1.98 0.66-3 1-3.19-1.94-3.19-1.94-6-4l-1 3c-1.62-2.57-2.04-3.68-1.62-6.75 0.2-0.74 0.41-1.49 0.62-2.25 1.98-0.66 3.96-1.32 6-2v-2z" fill="#272829"/>
<path transform="translate(392,945)" d="m0 0c1.5 1.31 1.5 1.31 3 3v3c0.53 1.3 1.1 2.6 1.69 3.88 1.23 3.15 1.45 3.73 0.25 7.06-2.09 2.22-3.02 2.57-5.94 3.06l-1 2c-2.51-1.32-4.55-2.43-6.31-4.69-1.04-3.48-0.81-6.69-0.69-10.3h3l-1 3c2.48 0.99 2.48 0.99 5 2 0.93-3.01 1.04-3.87 0-7 0.94-2.69 0.94-2.69 2-5z" fill="#232425"/>
<path transform="translate(374,887)" d="m0 0c2.48 2.48 2.26 3.93 2.28 7.31-0.01 0.7-0.02 1.4-0.03 2.13 0 0.71-0.01 1.43-0.01 2.17-0.08 5.2-0.7 10.1-1.9 15.2-0.49 2.2-0.49 2.2 0.18 4.21 0.65 2.73 0.01 4.48-0.83 7.14-0.27 0.87-0.53 1.74-0.8 2.64-0.89 2.24-0.89 2.24-2.89 4.24-0.88-6-1.18-10.2 1-16 0.08-2.33 0.09-4.67 0-7l-4-1 3-2c0.3-1.87 0.58-3.74 0.75-5.63 0.28-2.64 0.74-5.2 1.25-7.81 0.17-0.84 0.33-1.69 0.5-2.56 0.5-2 0.5-2 1.5-3z" fill="#222324"/>
<path transform="translate(449,794)" d="m0 0c2 2 2 2 2.19 5.88-0.05 2.25-0.19 4.11-0.75 6.31-0.61 1.88-0.61 1.88 0.18 4 0.58 4.3-1.08 7.83-2.62 11.8h2l-1 10-4-3c-0.36-3.03-0.36-3.03-0.19-6.5 0.24-4.84 0.24-4.84-0.81-9.5 0.33-0.8 0.66-1.61 1-2.44 1.25-2.42 1.25-2.42 0.44-4.39-0.61-2.99 0.3-4.65 1.5-7.42 0.38-0.89 0.76-1.78 1.15-2.7 0.45-1.02 0.45-1.02 0.91-2.05z" fill="#222324"/>
<path transform="translate(1069,651)" d="m0 0h2c1 6.62 1 6.62 1 10h3v2l4-2 1 5c0.99 0.33 1.98 0.66 3 1l-1 3c-4.3-0.25-6.48-0.56-9.81-3.38-2.19-2.62-2.19-2.62-4.19-5.62l-2 5c-1.56-1.25-1.56-1.25-3-3 0.44-3.18 1.75-5.55 3.44-8.25 0.43-0.71 0.86-1.41 1.31-2.14 0.41-0.53 0.82-1.06 1.25-1.61z" fill="#272829"/>
<path transform="translate(1077,762)" d="m0 0 2 1v4l4 1 1-2h2l-1 7c0.99 0.33 1.98 0.66 3 1l-5-1c-1.8 3.83-2.2 6.78-2 11-0.74-0.45-1.48-0.91-2.25-1.38-2.22-1.31-4.43-2.5-6.75-3.62 0.31-1.94 0.31-1.94 1-4 0.99-0.33 1.98-0.66 3-1 1.22-2.5 1.22-2.5 2-5h-2l1-7z" fill="#222324"/>
<path transform="translate(784,766)" d="m0 0c1 3 1 3 0 6 0.28 2.34 0.61 4.68 1 7l-4 1c-0.12 0.54-0.25 1.07-0.38 1.62-0.74 2.84-1.67 5.6-2.62 8.38h-2c-0.12 0.64-0.25 1.28-0.38 1.94-0.2 0.68-0.41 1.36-0.62 2.06l-2 1c-0.12-4.75-0.12-4.75 1-7l-2-2c-0.57-4.24 0.62-6.53 3-10 2 2 2 2 3 4 0.35-0.84 0.7-1.69 1.06-2.55 0.68-1.65 0.68-1.65 1.38-3.33 0.45-1.09 0.9-2.18 1.37-3.3 0.69-1.63 1.4-3.24 2.19-4.82z" fill="#222324"/>
<path transform="translate(872,641)" d="m0 0c1.39 0.71 1.39 0.71 2.81 1.44 3.1 1.6 3.1 1.6 6.19 2.56-1 3-1 3-3 4v2.31 5.69c-2-1-2-1-3-4l-2-1c-0.25 0.64-0.5 1.28-0.75 1.94-1.25 2.06-1.25 2.06-5.25 3.06l-1-9c2.48 0.5 2.48 0.5 5 1-0.21-0.58-0.41-1.15-0.62-1.75-0.47-2.77 0.19-3.9 1.62-6.25z" fill="#222324"/>
<path transform="translate(176,740)" d="m0 0c3.51 3.51 3.18 6.65 3.19 11.4 0.01 0.67 0.02 1.34 0.03 2.03 0.02 3.77-0.33 6.34-2.22 9.59 0.41 2.05 0.41 2.05 1 4l-1 3c-0.99-0.33-1.98-0.66-3-1-1.02-10-1.76-19.5 2-29z" fill="#272829"/>
<path transform="translate(626,705)" d="m0 0c3.18 1.06 5.44 1.92 7.03 4.99 0.78 2.32 1.41 4.63 1.97 7.01 0.27 1.09 0.54 2.19 0.81 3.31 0.21 3-0.32 4.15-1.81 6.69v3l-4-1v-8c-2.48-0.99-2.48-0.99-5-2 0.64-0.6 1.28-1.2 1.94-1.81 2.61-2.77 3.06-4.41 3.06-8.19h-4l-1-3 1-1z" fill="#222324"/>
<path transform="translate(126,842)" d="m0 0c2.25 2.05 3 3.01 4 6l2 1 1-3h2l1 8h-3l-2-3c-0.16 1.26-0.33 2.52-0.5 3.81-0.09 0.71-0.19 1.42-0.28 2.15-0.27 2.19-0.27 2.19-0.22 5.04-2.31-0.33-4.62-0.66-7-1-0.69-2.31-0.69-2.31-1-5 1.71-2.31 3.57-3.38 6-5l-1-2 1-2h-2v-5z" fill="#272829"/>
<path transform="translate(1464,1023)" d="m0 0 1 8c3.01 0.93 3.87 1.04 7 0v3h-8v3c-1.48-0.25-2.96-0.53-4.44-0.81-0.82-0.15-1.64-0.3-2.49-0.46-0.69-0.24-1.37-0.48-2.07-0.73-1-3-1-3-0.06-5.19 0.35-0.6 0.7-1.19 1.06-1.81l4 1v-5c3-1 3-1 4-1z" fill="#272829"/>
<path transform="translate(117,626)" d="m0 0c2 2 2 2 2.25 3.82 0 1.1 0 1.1-0.01 2.23 0.01 0.83 0.01 1.67 0.01 2.53 0 0.9-0.01 1.81-0.02 2.74v2.83c0 1.98-0.01 3.95-0.02 5.93-0.02 3.01-0.02 6.02-0.02 9.03-0.01 1.92-0.02 3.85-0.02 5.77 0 0.9 0 1.79-0.01 2.71-0.03 5.22-0.41 10.2-1.16 15.4h-1c-2.29-17.5-1-35.4 0-53z" fill="#28292A"/>
<path transform="translate(859,1019)" d="m0 0c1.56 1.75 1.56 1.75 3 4-0.15 0.58-0.31 1.16-0.46 1.76-0.72 3.01-0.19 5.32 0.34 8.36 1.34 8.6 1.75 17.2 2.12 25.9h-3c-0.08-1.1-0.08-1.1-0.17-2.22-0.25-3.32-0.51-6.64-0.77-9.97-0.08-1.15-0.17-2.3-0.26-3.48-0.09-1.12-0.18-2.23-0.26-3.37-0.08-1.02-0.16-2.05-0.24-3.1-0.28-2.67-0.75-5.23-1.3-7.86-0.44-7.13-0.44-7.13 1-10z" fill="#262728"/>
<path transform="translate(703,648)" d="m0 0 4 1c1.06 4 0.81 6.97 0 11v2l7 2-2 2c-2.44-0.38-2.44-0.38-5-1h-3c-0.99-0.33-1.98-0.66-3-1-0.2-5.74-0.27-10.6 2-16z" fill="#222324"/>
<path transform="translate(711,931)" d="m0 0h2v6c-0.99 0.5-0.99 0.5-2 1 0.39 0.51 0.78 1.02 1.18 1.55 1.24 3.72-0.45 6.35-2.06 9.7-0.29 0.65-0.59 1.3-0.89 1.97-0.73 1.6-1.48 3.19-2.23 4.78-2.43-3.64-2.16-5.71-2-10h-2l2-5 4 1-1-7 3-2v-2z" fill="#222324"/>
<path transform="translate(431,1046)" d="m0 0c1.6 7.28 2.87 13.9 0 21l-2 2c-0.07-1.01-0.07-1.01-0.15-2.05-0.07-0.89-0.15-1.78-0.23-2.7-0.06-0.88-0.13-1.76-0.21-2.67-0.41-2.58-1.22-4.28-2.41-6.58 0.38-2.25 0.38-2.25 1-4l-2-1v-2c3-2 3-2 6-2z" fill="#222324"/>
<path transform="translate(117,919)" d="m0 0 2 1c0.06 4.21 0.09 8.42 0.12 12.6 0.02 1.19 0.04 2.38 0.06 3.61 0 1.15 0.01 2.31 0.02 3.5 0.01 1.05 0.02 2.11 0.03 3.2-0.25 3.3-1.06 5.98-2.23 9.07h-1c-0.02-4.54-0.04-9.08-0.05-13.6-0.01-1.54-0.02-3.09-0.03-4.63-0.01-2.22-0.01-4.44-0.02-6.65 0-0.7-0.01-1.39-0.01-2.11 0-1.66 0.05-3.33 0.11-4.99l1-1z" fill="#272829"/>
<path transform="translate(1097,746)" d="m0 0c3 3 3.96 4.96 4.12 9.25-0.04 0.91-0.08 1.82-0.12 2.75h-3v2c-1.88-0.62-1.88-0.62-4-2-1.57-3.62-2-6.02-2-10l5-2z" fill="#222324"/>
<path transform="translate(523,747)" d="m0 0c2.89 0.31 4.54 0.54 6.62 2.62 1.78 3.08 3.14 6.04 4.38 9.38l-1 2c-3.69-0.9-5.55-1.4-7.88-4.5-1.12-2.5-1.12-2.5-1.12-4.5l-2-1 1-4z" fill="#222324"/>
<path transform="translate(1477,1038)" d="m0 0 1 3c-1.94 3.19-1.94 3.19-4 6l-1-2h-2l-2 4-4-3c0.69-2.88 0.69-2.88 2-6 3.34-1.98 6.17-2.22 10-2z" fill="#28292A"/>
<path transform="translate(536,786)" d="m0 0c2.25 0.06 2.25 0.06 5 1 2.09 2.66 4 5.54 4 9 0.78-0.06 1.57-0.12 2.38-0.19 0.86 0.06 1.73 0.13 2.62 0.19 0.99 1.49 0.99 1.49 2 3l-4 3-6-3v-6c-1.34-0.67-2.7-1.32-4.06-1.94-1.94-1.06-1.94-1.06-2.94-3.06l1-2z" fill="#222324"/>
<path transform="translate(1413,872)" d="m0 0 2 1c0.32 2.45 0.51 4.79 0.62 7.25 0.04 0.67 0.08 1.34 0.12 2.03 0.2 3.57 0.3 7.14 0.26 10.7-0.99 0.33-1.98 0.66-3 1-2.05-7.24-2.2-13.6-1-21l1-1z" fill="#28292A"/>
<path transform="translate(357,1053)" d="m0 0h2l1 2 3 2h-2c-0.05 0.58-0.1 1.17-0.15 1.77-0.62 6.8-1.66 13.5-2.85 20.2-2-2-2-2-2.14-4.43 0.06-1 0.11-1.99 0.16-3.02 0.05-1.07 0.11-2.15 0.16-3.26 0.06-1.12 0.13-2.25 0.2-3.41 0.05-1.14 0.11-2.28 0.17-3.45 0.14-2.81 0.29-5.62 0.45-8.43z" fill="#262728"/>
<path transform="translate(855,779)" d="m0 0h2c1.37 1.63 2.71 3.3 4 5l2 2c-0.99 0.33-1.98 0.66-3 1v3h2c2.22 5.42 2.22 5.42 1.12 8.38-0.37 0.53-0.74 1.07-1.12 1.62-1.98-0.33-3.96-0.66-6-1l5-7-4-2 1-3-2-3c-0.68-1.33-1.35-2.66-2-4l1-1z" fill="#272829"/>
<path transform="translate(1439,899)" d="m0 0c2.12 0.38 2.12 0.38 4 1l1 4h-3c-2.05 1.84-2.05 1.84-3 4-6.75-1.62-6.75-1.62-9-5 0.99-0.33 1.98-0.66 3-1l1-2c0.62 0.21 1.24 0.41 1.88 0.62 1.05 0.19 1.05 0.19 2.12 0.38l2-2z" fill="#272829"/>
<path transform="translate(142,648)" d="m0 0c0.62 2.31 0.62 2.31 1 5-0.99 1.49-0.99 1.49-2 3h-4l-1-3-1 7 2 1-4-1v-11c3.2-1.07 5.66-1.07 9-1z" fill="#28292A"/>
<path transform="translate(1370,813)" d="m0 0c2.97 1.12 5.33 2.22 8 4 2.97 0.12 5.85 0.14 8.81 0.06 8.13-0.11 16.1 0.2 24.2 0.94v1h-41v-6z" fill="#020305"/>
<path transform="translate(678,822)" d="m0 0 2 1-1 2c0.95-0.06 1.9-0.12 2.88-0.19 1.03 0.06 2.06 0.13 3.12 0.19 0.99 1.49 0.99 1.49 2 3-0.99 0.33-1.98 0.66-3 1l-2-1-1 2 4 3c-4.46 0.5-4.46 0.5-9 1v-11l2-1z" fill="#222324"/>
<path transform="translate(853,904)" d="m0 0c2.84 4.54 3 9.75 3 15-0.64 2.34-1.3 4.68-2 7-0.99-0.33-1.98-0.66-3-1 0.14-2.94 0.29-5.88 0.44-8.81 0.04-0.84 0.08-1.67 0.12-2.53 0.04-0.8 0.08-1.6 0.12-2.43 0.04-0.74 0.08-1.48 0.11-2.24 0.21-1.99 0.21-1.99 1.21-4.99z" fill="#222324"/>
<path transform="translate(1088,803)" d="m0 0c2.67 0.67 5.33 1.33 8 2v8l-5 2c-1.26-2.91-2-4.8-2-8-0.31-1.34-0.63-2.68-1-4z" fill="#222324"/>
<path transform="translate(890,550)" d="m0 0h2c0.03 1.62 0.05 3.25 0.06 4.88 0.01 0.9 0.03 1.8 0.04 2.74-0.1 2.38-0.1 2.38-1.1 4.38-2.56 0.62-2.56 0.62-5 1 0.11-1.44 0.24-2.88 0.38-4.31 0.06-0.8 0.13-1.6 0.21-2.43 0.48-2.62 1.5-4.35 3.41-6.26z" fill="#262728"/>
<path transform="translate(127,589)" d="m0 0c1.56 1.19 1.56 1.19 3 3-0.25 2.25-0.25 2.25-1 5-0.14 1.24-0.29 2.48-0.44 3.75-0.18 1.07-0.37 2.14-0.56 3.25-0.99 0.5-0.99 0.5-2 1v-7c-0.99 0.33-1.98 0.66-3 1v-6c0.99-0.33 1.98-0.66 3-1l1-3z" fill="#272829"/>
<path transform="translate(1419,907)" d="m0 0c2 1 2 1 3.19 3.25 0.91 3.09 0.54 4.67-0.19 7.75l1 3-5 4c-0.03-2.81-0.05-5.62-0.06-8.44-0.01-0.8-0.02-1.6-0.03-2.43-0.01-2.04 0.04-4.09 0.09-6.13l1-1z" fill="#272829"/>
<path transform="translate(906,843)" d="m0 0c1.14 0.25 1.14 0.25 2.31 0.5 2.7 0.5 4.13 0.35 6.69-0.5 1.23 6.4 1.23 6.4 0.06 9.44-0.35 0.51-0.7 1.03-1.06 1.56l-2-7-3 3c-1.95-1.95-2.85-3.53-4-6l1-1z" fill="#222324"/>
<path transform="translate(217 554)" d="m0 0c1.45-0 1.45-0 2.92-0.01 2.33 0.13 2.33 0.13 3.33 1.13 2.33 0.37 4.66 0.71 7 1 0.33-0.65 0.66-1.32 1-2 0.99 0.34 1.98 0.66 3 1v2c-2.98 0.03-5.96 0.05-8.94 0.07-1.24 0.01-1.24 0.01-2.52 0.02-5.59 0.02-11-0.37-16.5-1.09v-1c3.64-0.83 7.02-1.13 10.8-1.12z" fill="#28292A"/>
<path transform="translate(1413,923)" d="m0 0c2.03 7.03 1.29 14.9 0 22l-2 1v-22l2-1z" fill="#252627"/>
<path transform="translate(130,649)" d="m0 0 1 6-5 4c-1.13-3.31-2.21-6.59-3-10 3.13-1.04 3.99-0.93 7 0z" fill="#272829"/>
<path transform="translate(1076,987)" d="m0 0c2 3 2 3 2 6l2 1 1-3h3v2l2 1-1 2h-3l-1 3h-2l-5-9 2-3z" fill="#222324"/>
<path transform="translate(1430,888)" d="m0 0c2.5 1.69 2.5 1.69 5 4 0.31 2.75 0.31 2.75 0 5-0.64 0.1-1.28 0.21-1.94 0.31-1.02 0.34-1.02 0.34-2.06 0.69l-1 3c-1.12-2.19-1.12-2.19-2-5 0.88-2.62 0.88-2.62 2-5v-3z" fill="#272829"/>
<path transform="translate(1425,877)" d="m0 0c1.48 0.99 1.48 0.99 3 2l2-2h2c0.85 2.38 1.07 3.71 0.44 6.19-1.44 1.81-1.44 1.81-4.56 2.56-1.43 0.12-1.43 0.12-2.88 0.25v-9z" fill="#272829"/>
<path transform="translate(233,1089)" d="m0 0c0.5 0.99 0.5 0.99 1 2-3.12 1.56-6.43 1.12-9.85 1.1-0.78 0-1.55-0.01-2.35-0.01-2.47 0-4.95-0.01-7.42-0.03-1.68 0-3.36-0.01-5.04-0.01-4.11-0.01-8.23-0.03-12.3-0.05v-1c0.77-0.03 1.54-0.05 2.34-0.08 3.53-0.11 7.06-0.24 10.6-0.36 1.21-0.04 2.42-0.08 3.67-0.12 6.51-0.23 12.9-0.61 19.4-1.44z" fill="#020305"/>
<path transform="translate(414,1071)" d="m0 0c2.97 0.49 2.97 0.49 6 1 0.8 3.29 1.1 4.71 0 8-3-1-3-1-5-3l-3-2 2-4z" fill="#272829"/>
<path transform="translate(898,1060)" d="m0 0h2v2h4l1 7h-6c-0.36-1.31-0.71-2.62-1.06-3.94-0.3-1.09-0.3-1.09-0.6-2.21-0.11-0.61-0.22-1.22-0.34-1.85l1-1z" fill="#28292A"/>
<path transform="translate(641,1056)" d="m0 0 2 7-3 3-4-2v-7c3-1 3-1 5-1z" fill="#222324"/>
<path transform="translate(175,896)" d="m0 0h5c0.95 3.7 0.95 6.3 0 10l-2-2-3 2v-3l-1-3c0.44-2.19 0.44-2.19 1-4z" fill="#28292A"/>
<path transform="translate(73,553)" d="m0 0h2v2h29v1c-15.3 0.5-15.3 0.5-31 1l-1-3 1-1z" fill="#262728"/>
<path transform="translate(431,1054)" d="m0 0c1.4 2.29 2.03 3.58 1.83 6.29-0.19 0.77-0.38 1.54-0.58 2.33-0.18 0.78-0.36 1.56-0.55 2.36-0.7 2.02-0.7 2.02-2.7 4.02-0.17-1.6-0.33-3.21-0.5-4.81-0.09-0.9-0.19-1.79-0.28-2.71-0.22-2.48-0.22-2.48-0.22-5.48l3-2z" fill="#262728"/>
<path transform="translate(640,745)" d="m0 0c2.92 1.13 4.99 2.59 7 5v2c-2.81 0.62-2.81 0.62-6 1l-3-2c-0.19-2.62-0.19-2.62 0-5l2-1z" fill="#222324"/>
<path transform="translate(623,510)" d="m0 0c3.33 2.22 3.96 3.52 5.62 7.06 1.36 3.19 1.36 3.19 3.38 5.94 0.04 1.67 0.04 3.33 0 5-3-1-3-1-4.1-2.6-4.9-10.3-4.9-10.3-4.9-15.4z" fill="#262728"/>
<path transform="translate(122,1091)" d="m0 0v1h-37v-1c12.4-1.68 24.6-0.96 37 0z" fill="#020305"/>
<path transform="translate(1105,650)" d="m0 0c3.69 1.23 4.72 2.94 7 6-0.64 0.23-1.28 0.45-1.94 0.69-2.33 1.16-2.33 1.16-2.81 3.93-0.08 0.79-0.16 1.57-0.25 2.38l-2-1v-12z" fill="#28292A"/>
<path transform="translate(1429,933)" d="m0 0c3.2 4.8 3.26 9.92 2.56 15.6-0.18 0.81-0.37 1.61-0.56 2.44h-3c-0.03-2.06-0.05-4.12-0.06-6.19-0.01-1.15-0.03-2.29-0.04-3.48 0.09-2.92 0.42-5.49 1.1-8.33z" fill="#28292A"/>
<path transform="translate(606,921)" d="m0 0-1 5c-2.31 0.33-4.62 0.66-7 1l-2-4c3.64-2.43 5.71-2.16 10-2z" fill="#222324"/>
<path transform="translate(836,731)" d="m0 0c2.87 5.36 3.32 10.1 2 16-0.04 2.33-0.05 4.67 0 7-2.9-2.44-2.9-2.44-3.33-4.88 0.03-0.7 0.05-1.4 0.08-2.12 0.03-0.78 0.05-1.56 0.08-2.37 0.3-4.55 0.7-9.09 1.17-13.6z" fill="#222324"/>
<path transform="translate(853 697)" d="m0 0c0.6 0.21 1.2 0.41 1.81 0.62-0.33 1-0.66 1.99-1 3h3c0.33-0.65 0.66-1.32 1-2 0.99 1.49 0.99 1.49 2 3-7.62 2.55-7.62 2.55-11.4 1.07-0.54-0.35-1.07-0.7-1.63-1.07 1.16-3.47 2.28-5.29 6.19-4.62z" fill="#28292A"/>
<path transform="translate(175,1032)" d="m0 0c0.62 2.06 0.62 2.06 1 4h-5l-1 3c-0.99 0.33-1.98 0.66-3 1-0.62-2.88-0.62-2.88-1-6 2.67-2.67 5.48-3.76 9-2z" fill="#28292A"/>
<path transform="translate(1458,1044)" d="m0 0c0.99 0.33 1.98 0.66 3 1l-1 4h5l-1 3h-9l-1-4c0.99 0.33 1.98 0.66 3 1l1-5z" fill="#28292A"/>
<path transform="translate(126,902)" d="m0 0 3 3-1 2c0.16 0.6 0.33 1.2 0.5 1.81 0.61 2.67 0.16 4.56-0.5 7.19-0.99-0.33-1.98-0.66-3-1l1-5h-2c-0.2-3.72-0.15-4.77 2-8z" fill="#272829"/>
<path transform="translate(726,887)" d="m0 0h3l2 9h-2l-1 2-1-3-2-1c0-2.62 0.31-4.51 1-7z" fill="#222324"/>
<path transform="translate(848,857)" d="m0 0c1.56 1.75 1.56 1.75 3 4-0.32 1.34-0.66 2.67-1 4l3 3c-0.31 2.19-0.31 2.19-1 4h-4c-0.19-2.31-0.38-4.62-0.56-6.94-0.16-1.93-0.16-1.93-0.32-3.9-0.04-1.04-0.08-2.09-0.12-3.16l1-1z" fill="#222324"/>
<path transform="translate(396,931)" d="m0 0c0.45 0.47 0.91 0.95 1.38 1.44 1.55 1.65 1.55 1.65 3.62 2.56v5l-2-2 1-2-8 2-2-4c3-2 3-2 5-2l1-1z" fill="#222324"/>
<path transform="translate(981,1082)" d="m0 0v8c-2.38-0.62-2.38-0.62-5-2-1.31-3.12-1.31-3.12-2-6 3.13-1.04 3.99-0.93 7 0z" fill="#262728"/>
<path transform="translate(925,1030)" d="m0 0h5c1.27 3.65 2.33 7.19 3 11l-5 2-1-3c0.99-0.33 1.98-0.66 3-1-0.7-3-0.7-3-2-6-2.03-0.97-2.03-0.97-4-1l1-2z" fill="#222324"/>
<path transform="translate(434,1023)" d="m0 0c1.61 3.21 0.83 6.63 0.56 10.1-0.05 0.76-0.1 1.51-0.16 2.29-0.13 1.86-0.26 3.73-0.4 5.59-0.99-0.33-1.98-0.66-3-1v-4c-0.06-1.11-0.12-2.23-0.19-3.38 0.21-3.95 1.21-6.23 3.19-9.62z" fill="#28292A"/>
<path transform="translate(398,1014)" d="m0 0c1.26 3.77 0.37 5.37-1 9-3.01-1.5-2.97-3.92-4-7l-2-1c3.62-2.12 3.62-2.12 7-1z" fill="#28292A"/>
<path transform="translate(384,951)" d="m0 0 2 2-1 2 4 2v3h-3l-1 4c-2.61-3.91-2.22-7.46-2-12l1-1z" fill="#222324"/>
<path transform="translate(122,912)" d="m0 0c0.99 0.33 1.98 0.66 3 1v12c-0.99 0.33-1.98 0.66-3 1-0.19-1.96-0.38-3.92-0.56-5.88-0.11-1.09-0.21-2.18-0.32-3.3-0.12-2.82-0.12-2.82 0.88-4.82z" fill="#272829"/>
<path transform="translate(1105,668)" d="m0 0c2.97 0.33 5.94 0.66 9 1l-1 4-8 1c-1.12-3.75-1.12-3.75 0-6z" fill="#272829"/>
<path transform="translate(450,832)" d="m0 0v17l-2-1c-0.38-2.18-0.38-2.18-0.56-4.88-0.22-2.99-0.48-5.25-1.44-8.12 2.88-3 2.88-3 4-3z" fill="#28292A"/>
<path transform="translate(1090,817)" d="m0 0 3 3-1 2h3l-1 2c-0.35 1.33-0.69 2.66-1 4-2.47-0.99-2.47-0.99-5-2v-3h2c-0.28-1.21-0.28-1.21-0.56-2.44-0.15-0.84-0.29-1.69-0.44-2.56l1-1z" fill="#222324"/>
<path transform="translate(663 782)" d="m0 0c2.25 1.81 2.25 1.81 3.25 4.81-0.99 0.5-0.99 0.5-2 1l-2-2c-2.66-0.46-2.66-0.46-5.63-0.62-1-0.08-2-0.15-3.03-0.23-0.77-0.05-1.55-0.1-2.34-0.15 0.61-0.3 1.22-0.6 1.85-0.92 1.54-0.77 3.07-1.57 4.59-2.39 2.56-0.69 2.56-0.69 5.31 0.5z" fill="#222324"/>
<path transform="translate(897,703)" d="m0 0 6 3v3c-1.64 0.22-1.64 0.22-3.31 0.44-3.62 0.44-3.62 0.44-6.69 1.56 0.31-1.94 0.31-1.94 1-4 0.99-0.33 1.98-0.66 3-1v-3z" fill="#222324"/>
<path transform="translate(433,1091)" d="m0 0h36v1h-36v-1z" fill="#020305"/>
<path transform="translate(117,937)" d="m0 0 2 1c0.18 5.22-0.03 9.07-2 14h-1c-0.03-2.31-0.05-4.62-0.06-6.94-0.01-1.29-0.03-2.57-0.04-3.9 0.1-3.16 0.1-3.16 1.1-4.16z" fill="#262728"/>
<path transform="translate(587,888)" d="m0 0c2 2 2 2 2 4 1.29 1.37 2.62 2.71 4 4-3 1-3 1-5 0.38-2.53-1.74-3.58-3.69-5-6.38l4-2z" fill="#222324"/>
<path transform="translate(379,771)" d="m0 0c1.5 1.25 1.5 1.25 3 3v4h-2l-1 5c-1.95-2.87-1.99-4.13-1.69-7.69 0.69-3.31 0.69-3.31 1.69-4.31z" fill="#262728"/>
<path transform="translate(125,1060)" d="m0 0c1.78 3.06 2.23 5.22 2.12 8.75-0.01 0.8-0.03 1.6-0.05 2.42-0.03 0.91-0.03 0.91-0.07 1.83-1.5-1.31-1.5-1.31-3-3v-3l-2-1v-4h3v-2z" fill="#28292A"/>
<path transform="translate(127,926)" d="m0 0 2 1c0 3.11-0.17 5.11-1 8l-2-1c-0.68-0.29-1.36-0.58-2.06-0.88-1.94-1.12-1.94-1.12-2.94-4.12l2-2 3 2 1-3z" fill="#28292A"/>
<path transform="translate(898,695)" d="m0 0 3 2c-0.38 1.94-0.38 1.94-1 4-0.99 0.5-0.99 0.5-2 1-0.99-0.33-1.98-0.66-3-1v2c-0.99-0.33-1.98-0.66-3-1 1.98-2.31 3.96-4.62 6-7z" fill="#222324"/>
<path transform="translate(1111,686)" d="m0 0c-1.2 3.08-2.48 6.06-4 9l-2-1c-0.59-2.65-0.74-5.29-1-8 2.67-1.33 4.17-0.67 7 0z" fill="#272829"/>
<path transform="translate(1158,600)" d="m0 0 2 1v4c-0.96 0.37-0.96 0.37-1.94 0.75-2.25 1.07-2.25 1.07-2.81 3.37-0.08 0.62-0.16 1.24-0.25 1.88l-5-1 4-1-1-4c0.64-0.27 1.28-0.54 1.94-0.81 2.39-1.08 2.39-1.08 3.06-4.19z" fill="#28292A"/>
<path transform="translate(164 570)" d="m0 0c1.88 0.81 1.88 0.81 3.88 3.81-3.32 1.13-3.32 1.13-7 2-1-0.66-1.98-1.32-3-2v-2c2.21-1.35 3.5-2.04 6.12-1.81z" fill="#28292A"/>
<path transform="translate(824 1081)" d="m0 0c1.24 0.02 1.24 0.02 2.5 0.04 0.82 0 1.65 0.01 2.5 0.02 0.64 0.01 1.28 0.03 1.93 0.04v2c-0.72 0.27-1.44 0.53-2.18 0.81-2.79 1.18-5.26 2.58-7.82 4.19-0.04-2-0.04-4 0-6 1-1 1-1 3.07-1.1z" fill="#242526"/>
<path transform="translate(427,967)" d="m0 0 2 2c-1.25 3.44-1.25 3.44-3 7-2.19 0.94-2.19 0.94-4 1v-5h3c0.14-0.64 0.29-1.28 0.44-1.94 0.56-2.06 0.56-2.06 1.56-3.06z" fill="#28292A"/>
<path transform="translate(863,889)" d="m0 0c2.48 0.99 2.48 0.99 5 2l-1 5c-0.99 0.33-1.98 0.66-3 1l-2-1 1-7z" fill="#222324"/>
<path transform="translate(1470,816)" d="m0 0 8 3c-0.99 0.5-0.99 0.5-2 1l1 3-4 1-1-3c-0.99-0.33-1.98-0.66-3-1l1-4z" fill="#28292A"/>
<path transform="translate(652,575)" d="m0 0h4v2c0.99 0.33 1.98 0.66 3 1h-3l-1 6h-2l-1-9z" fill="#262728"/>
<path transform="translate(420,1010)" d="m0 0h4l-2 5c-0.54-0.16-1.07-0.33-1.62-0.5-2.84-0.6-5.49-0.57-8.38-0.5l1-3c2.31 0.33 4.62 0.66 7 1v-2z" fill="#222324"/>
<path transform="translate(118,951)" d="m0 0v14l-1-4h-2v-9c2-1 2-1 3-1z" fill="#28292A"/>
<path transform="translate(387,765)" d="m0 0 5 5c-1 3-1 3-4 5-1.85-3.12-2.29-5.38-2-9l1-1z" fill="#28292A"/>
<path transform="translate(1164,593)" d="m0 0c0.99 0.33 1.98 0.66 3 1l-1 2h-3v5c-2.97-0.5-2.97-0.5-6-1 0.25-1.88 0.25-1.88 1-4 1.94-1.19 1.94-1.19 4-2l2-1z" fill="#272829"/>
<path transform="translate(910,859)" d="m0 0c2.91 0.29 3.83 0.79 5.75 3.06 0.41 0.64 0.83 1.28 1.25 1.94-3.75 1.12-3.75 1.12-6 0l-1 2c-0.38-1.99-0.71-3.99-1-6l1-1z" fill="#222324"/>
<path transform="translate(188,767)" d="m0 0h3v18l-2-1c-0.12-7.62-0.12-7.62 1-11h-2v-6z" fill="#272829"/>
<path transform="translate(450,813)" d="m0 0h1v18h-2l1-9h-2l2-9z" fill="#28292A"/>
<path transform="translate(133,735)" d="m0 0h2l2 4h3l-4 4c-0.99-0.33-1.98-0.66-3-1-1.18-2.94-1.03-3.9 0-7z" fill="#272829"/>
<path transform="translate(222,552)" d="m0 0v2h-13v-2c4.66-0.84 8.37-1.02 13 0z" fill="#020305"/>
<path transform="translate(450,794)" d="m0 0c0.99 0.33 1.98 0.66 3 1-0.11 2.48-0.24 4.96-0.38 7.44-0.03 0.7-0.06 1.41-0.09 2.14-0.1 1.81-0.31 3.62-0.53 5.42l-2 1c-0.85-4.08-0.91-6.96 0-11 0.04-2 0.05-4 0-6z" fill="#28292A"/>
<path transform="translate(434 1e3)" d="m0 0h2l-1 18-2-1c-0.03-2.65-0.05-5.29-0.06-7.94-0.01-0.75-0.02-1.51-0.03-2.28-0.01-1.93 0.04-3.86 0.09-5.78l1-1z" fill="#28292A"/>
<path transform="translate(869,792)" d="m0 0c0.41 0.45 0.83 0.91 1.25 1.38 1.82 1.69 3.53 2.54 5.75 3.62l2 2-1 3c-0.76-0.64-1.53-1.28-2.31-1.94-2.57-2.2-2.57-2.2-5.69-3.06l-1-3 1-2z" fill="#28292A"/>
<path transform="translate(567,604)" d="m0 0 1 3 2 1h-2l-2 7c-1.41-2.64-2.37-5.07-3-8 0.99-0.33 1.98-0.66 3-1l1-2z" fill="#262728"/>
<path transform="translate(1147,1035)" d="m0 0c2.19 0.31 2.19 0.31 4 1l-1 4h-2l-1 2c-0.99-1.32-1.98-2.64-3-4 1.25-1.56 1.25-1.56 3-3z" fill="#272829"/>
<path transform="translate(629,951)" d="m0 0h2c1.69 2.31 1.69 2.31 3 5l-1 3c-3-1-3-1-5-4 0.38-2.19 0.38-2.19 1-4z" fill="#222324"/>
<path transform="translate(1036,852)" d="m0 0 4 1c1 5.75 1 5.75 1 8h-3v-4l-2-1v-4z" fill="#222324"/>
<path transform="translate(453,782)" d="m0 0h1c0.75 3.66 1.24 6.42 0 10h-2v2c-2-1-2-1-3-4h2c0.14-1.13 0.29-2.27 0.44-3.44 0.56-3.56 0.56-3.56 1.56-4.56z" fill="#222324"/>
<path transform="translate(1069,668)" d="m0 0c0.99 0.33 1.98 0.66 3 1 0.81 1.94 0.81 1.94 1 4l-2 2c-2.12-0.38-2.12-0.38-4-1 0.51-2.17 1-4 2-6z" fill="#28292A"/>
<path transform="translate(669,1008)" d="m0 0 2 2c-0.19 2-0.19 2-1 4l-3 2-2-1c1.07-2.92 1.78-4.78 4-7z" fill="#272829"/>
<path transform="translate(368,965)" d="m0 0h5l2 4c-1.98 0.33-3.96 0.66-6 1l-1-5z" fill="#222324"/>
<path transform="translate(175,959)" d="m0 0 1 2h3l1 3-7 2c0-3.11 0.54-4.35 2-7z" fill="#28292A"/>
<path transform="translate(860,958)" d="m0 0 2 1c0.48 1.78 0.48 1.78 0.75 3.94 0.1 0.71 0.2 1.42 0.3 2.15-0.05 1.91-0.05 1.91-2.05 3.91-2-3-2-3-1.62-5.19 0.2-0.6 0.41-1.19 0.62-1.81l-2-1 2-3z" fill="#28292A"/>
<path transform="translate(1415,954)" d="m0 0h4v5l-4 2c-1.12-4.75-1.12-4.75 0-7z" fill="#222324"/>
<path transform="translate(166,934)" d="m0 0c2.12 0.94 2.12 0.94 4 2-1.75 3.88-1.75 3.88-4 5l-2-2v-4l2-1z" fill="#28292A"/>
<path transform="translate(123,895)" d="m0 0 8 3-3 3c-2.69-0.31-2.69-0.31-5-1v-5z" fill="#272829"/>
<path transform="translate(734,877)" d="m0 0h3c-0.51 4.32-1.2 8.03-3 12h-2l2-12z" fill="#222324"/>
<path transform="translate(701,861)" d="m0 0 3 2v3c-2.31 0.69-2.31 0.69-5 1-1.81-1.44-1.81-1.44-3-3l2-2c0.99 0.33 1.98 0.66 3 1v-2z" fill="#28292A"/>
<path transform="translate(909,836)" d="m0 0c1.98 0.66 3.96 1.32 6 2l-1 3c-2.06 0.69-2.06 0.69-4 1v-2h-2l1-4z" fill="#222324"/>
<path transform="translate(869,801)" d="m0 0 2 1v7c-0.99 0.5-0.99 0.5-2 1l-4-4 2-2 2-3z" fill="#28292A"/>
<path transform="translate(849,795)" d="m0 0c2.78 1.39 2.98 3.16 4 6l-4 3v-3l-2-1 2-5z" fill="#28292A"/>
<path transform="translate(389,751)" d="m0 0h2c1.39 1.96 2.73 3.96 4 6-1.81 0.69-1.81 0.69-4 1-1.81-1.19-1.81-1.19-3-3 0.31-2.19 0.31-2.19 1-4z" fill="#272829"/>
<path transform="translate(846,701)" d="m0 0c2.62 0.94 2.62 0.94 5 2l-1 5-4-1 1-2-2-1-1-2 2-1z" fill="#222324"/>
<path transform="translate(395,694)" d="m0 0h4c0.93 2.61 1.15 3.64 0.06 6.25-0.52 0.87-0.52 0.87-1.06 1.75-1.89-2.39-3.02-4.07-4-7l1-1z" fill="#252627"/>
<path transform="translate(1076,651)" d="m0 0h2c1.47 3.81 0.43 6.29-1 10l-2-1 1-9z" fill="#272829"/>
<path transform="translate(953,1091)" d="m0 0h21v1h-21v-1z" fill="#020305"/>
<path transform="translate(319,1090)" d="m0 0h20v1h-20v-1z" fill="#020305"/>
<path transform="translate(1327,1090)" d="m0 0h11v1h-11v-1z" fill="#020305"/>
<path transform="translate(525,513)" d="m0 0c1.49 0.99 1.49 0.99 3 2l-1 4-2-6z" fill="#212223"/>
<path transform="translate(1313,1091)" d="m0 0h7v1h-7v-1z" fill="#020305"/>
<path transform="translate(893,584)" d="m0 0h1v5h-1v-5z" fill="#020305"/>
<path transform="translate(342,1090)" d="m0 0c3 1 3 1 3 1z" fill="#020305"/>
<path transform="translate(1344,1089)" d="m0 0c3 1 3 1 3 1z" fill="#020305"/>
<path transform="translate(1358,1087)" d="m0 0c3 1 3 1 3 1z" fill="#020305"/>
<path transform="translate(1352,565)" d="m0 0c3 1 3 1 3 1z" fill="#020305"/>
<path transform="translate(1337,562)" d="m0 0c3 1 3 1 3 1z" fill="#020305"/>
<path transform="translate(1257,560)" d="m0 0c3 1 3 1 3 1z" fill="#020305"/>
<path transform="translate(1365,1086)" d="m0 0 2 1z" fill="#020305"/>
<path transform="translate(1356,566)" d="m0 0 2 1z" fill="#020305"/>
<path transform="translate(1231,566)" d="m0 0 2 1z" fill="#020305"/>
<path transform="translate(1246,562)" d="m0 0 2 1z" fill="#020305"/>
</svg>
